<svg width="1922" height="52" viewBox="0 0 1922 52" fill="none" xmlns="http://www.w3.org/2000/svg">
<path d="M30.5836 44.4833L25.0393 37.4833M16.2502 12.7339C19.0934 14.4088 21.4217 16.3422 23.3149 18.6499C25.6254 21.4664 27.2877 24.8405 28.4464 28.9833C29.6414 33.2554 30.3009 38.3449 30.5836 44.4833C23.7026 43.2675 18.4576 41.488 14.4169 38.8476C12.0099 37.2748 10.0302 35.3965 8.38651 33.1499M0.750244 6.81662L10.1227 18.6499M16.2502 12.7339C14.4265 11.6594 12.391 10.6913 10.1227 9.79885C7.35723 8.71082 4.24578 7.73524 0.750244 6.81662C1.23925 11.2325 1.8176 15.1585 2.56581 18.6499C3.12828 21.2746 3.78674 23.6538 4.5754 25.8109C5.60067 28.6152 6.84599 31.0443 8.38651 33.1499M25.0393 37.4833L14.4169 38.8476M25.0393 37.4833L20.4191 31.6499M25.0393 37.4833L28.4464 28.9833M20.4191 31.6499L8.38651 33.1499M20.4191 31.6499L15.0069 24.8166M20.4191 31.6499L23.3149 18.6499M15.0069 24.8166L4.5754 25.8109M15.0069 24.8166L10.1227 18.6499M15.0069 24.8166L16.2502 12.7339M10.1227 18.6499H2.56581M10.1227 18.6499V9.79885" stroke="#7F715A" stroke-width="1.3"/>
<path d="M30.4165 44.4837L35.9917 37.4837M44.8299 12.7343C41.9709 14.4093 39.6295 16.3426 37.7258 18.6504C35.4024 21.4668 33.7308 24.8409 32.5656 28.9837C31.364 33.2558 30.7008 38.3453 30.4165 44.4837C37.336 43.2679 42.6102 41.4884 46.6735 38.848M60.4165 6.81702L50.9917 18.6504M0.41652 6.81702H60.4165C59.9248 11.2329 59.3432 15.1589 58.5908 18.6504C58.0252 21.2751 57.363 23.6542 56.57 25.8113C55.539 28.6157 54.2867 31.0448 52.7376 33.1504M44.8299 12.7343C46.6638 11.6598 48.7107 10.6917 50.9917 9.79926C53.7726 8.71123 56.9014 7.73565 60.4165 6.81702M35.9917 37.4837L46.6735 38.848M35.9917 37.4837L40.6377 31.6504M35.9917 37.4837L32.5656 28.9837M46.6735 38.848C49.094 37.2752 51.0847 35.3969 52.7376 33.1504M40.6377 31.6504L52.7376 33.1504M40.6377 31.6504L46.0802 24.817M40.6377 31.6504L37.7258 18.6504M46.0802 24.817L56.57 25.8113M46.0802 24.817L50.9917 18.6504M46.0802 24.817L44.8299 12.7343M50.9917 18.6504H58.5908M50.9917 18.6504V9.79926M0.41652 0.650359H60.4165M0.41652 44.4837H60.4165M60.4165 50.817H0.41652" stroke="#7F715A" stroke-width="1.3"/>
<path d="M30.5836 44.4833L25.0393 37.4833M16.2502 12.7339C19.0934 14.4088 21.4217 16.3422 23.3149 18.6499C25.6254 21.4664 27.2877 24.8405 28.4464 28.9833C29.6414 33.2554 30.3009 38.3449 30.5836 44.4833C23.7026 43.2675 18.4576 41.488 14.4169 38.8476C12.0099 37.2748 10.0302 35.3965 8.38651 33.1499M0.750244 6.81662L10.1227 18.6499M16.2502 12.7339C14.4265 11.6594 12.391 10.6913 10.1227 9.79885C7.35723 8.71082 4.24578 7.73524 0.750244 6.81662C1.23925 11.2325 1.8176 15.1585 2.56581 18.6499C3.12828 21.2746 3.78674 23.6538 4.5754 25.8109C5.60067 28.6152 6.84599 31.0443 8.38651 33.1499M25.0393 37.4833L14.4169 38.8476M25.0393 37.4833L20.4191 31.6499M25.0393 37.4833L28.4464 28.9833M20.4191 31.6499L8.38651 33.1499M20.4191 31.6499L15.0069 24.8166M20.4191 31.6499L23.3149 18.6499M15.0069 24.8166L4.5754 25.8109M15.0069 24.8166L10.1227 18.6499M15.0069 24.8166L16.2502 12.7339M10.1227 18.6499H2.56581M10.1227 18.6499V9.79885" stroke="#7F715A" stroke-width="1.3"/>
<path d="M30.4165 44.4837L35.9917 37.4837M44.8299 12.7343C41.9709 14.4093 39.6295 16.3426 37.7258 18.6504C35.4024 21.4668 33.7308 24.8409 32.5656 28.9837C31.364 33.2558 30.7008 38.3453 30.4165 44.4837C37.336 43.2679 42.6102 41.4884 46.6735 38.848M60.4165 6.81702L50.9917 18.6504M0.41652 6.81702H60.4165C59.9248 11.2329 59.3432 15.1589 58.5908 18.6504C58.0252 21.2751 57.363 23.6542 56.57 25.8113C55.539 28.6157 54.2867 31.0448 52.7376 33.1504M44.8299 12.7343C46.6638 11.6598 48.7107 10.6917 50.9917 9.79926C53.7726 8.71123 56.9014 7.73565 60.4165 6.81702M35.9917 37.4837L46.6735 38.848M35.9917 37.4837L40.6377 31.6504M35.9917 37.4837L32.5656 28.9837M46.6735 38.848C49.094 37.2752 51.0847 35.3969 52.7376 33.1504M40.6377 31.6504L52.7376 33.1504M40.6377 31.6504L46.0802 24.817M40.6377 31.6504L37.7258 18.6504M46.0802 24.817L56.57 25.8113M46.0802 24.817L50.9917 18.6504M46.0802 24.817L44.8299 12.7343M50.9917 18.6504H58.5908M50.9917 18.6504V9.79926M0.41652 0.650359H60.4165M0.41652 44.4837H60.4165M60.4165 50.817H0.41652" stroke="#7F715A" stroke-width="1.3"/>
<path d="M270.583 44.4833L265.039 37.4833M256.25 12.7339C259.093 14.4088 261.421 16.3422 263.314 18.6499C265.625 21.4664 267.287 24.8405 268.446 28.9833C269.641 33.2554 270.3 38.3449 270.583 44.4833C263.702 43.2675 258.457 41.488 254.416 38.8476C252.009 37.2748 250.03 35.3965 248.386 33.1499M240.75 6.81662L250.122 18.6499M256.25 12.7339C254.426 11.6594 252.391 10.6913 250.122 9.79885C247.357 8.71082 244.245 7.73524 240.75 6.81662C241.239 11.2325 241.817 15.1585 242.565 18.6499C243.128 21.2746 243.786 23.6538 244.575 25.8109C245.6 28.6152 246.846 31.0443 248.386 33.1499M265.039 37.4833L254.416 38.8476M265.039 37.4833L260.419 31.6499M265.039 37.4833L268.446 28.9833M260.419 31.6499L248.386 33.1499M260.419 31.6499L255.006 24.8166M260.419 31.6499L263.314 18.6499M255.006 24.8166L244.575 25.8109M255.006 24.8166L250.122 18.6499M255.006 24.8166L256.25 12.7339M250.122 18.6499H242.565M250.122 18.6499V9.79885" stroke="#7F715A" stroke-width="1.3"/>
<path d="M270.416 44.4837L275.991 37.4837M284.829 12.7343C281.97 14.4093 279.629 16.3426 277.725 18.6504C275.402 21.4668 273.73 24.8409 272.565 28.9837C271.363 33.2558 270.7 38.3453 270.416 44.4837C277.335 43.2679 282.61 41.4884 286.673 38.848M300.416 6.81702L290.991 18.6504M240.416 6.81702H300.416C299.924 11.2329 299.343 15.1589 298.59 18.6504C298.025 21.2751 297.363 23.6542 296.569 25.8113C295.538 28.6157 294.286 31.0448 292.737 33.1504M284.829 12.7343C286.663 11.6598 288.71 10.6917 290.991 9.79926C293.772 8.71123 296.901 7.73565 300.416 6.81702M275.991 37.4837L286.673 38.848M275.991 37.4837L280.637 31.6504M275.991 37.4837L272.565 28.9837M286.673 38.848C289.093 37.2752 291.084 35.3969 292.737 33.1504M280.637 31.6504L292.737 33.1504M280.637 31.6504L286.08 24.817M280.637 31.6504L277.725 18.6504M286.08 24.817L296.569 25.8113M286.08 24.817L290.991 18.6504M286.08 24.817L284.829 12.7343M290.991 18.6504H298.59M290.991 18.6504V9.79926M240.416 0.650359H300.416M240.416 44.4837H300.416M300.416 50.817H240.416" stroke="#7F715A" stroke-width="1.3"/>
<path d="M510.583 44.4833L505.039 37.4833M496.25 12.7339C499.093 14.4088 501.421 16.3422 503.314 18.6499C505.625 21.4664 507.287 24.8405 508.446 28.9833C509.641 33.2554 510.3 38.3449 510.583 44.4833C503.702 43.2675 498.457 41.488 494.416 38.8476C492.009 37.2748 490.03 35.3965 488.386 33.1499M480.75 6.81662L490.122 18.6499M496.25 12.7339C494.426 11.6594 492.391 10.6913 490.122 9.79885C487.357 8.71082 484.245 7.73524 480.75 6.81662C481.239 11.2325 481.817 15.1585 482.565 18.6499C483.128 21.2746 483.786 23.6538 484.575 25.8109C485.6 28.6152 486.846 31.0443 488.386 33.1499M505.039 37.4833L494.416 38.8476M505.039 37.4833L500.419 31.6499M505.039 37.4833L508.446 28.9833M500.419 31.6499L488.386 33.1499M500.419 31.6499L495.006 24.8166M500.419 31.6499L503.314 18.6499M495.006 24.8166L484.575 25.8109M495.006 24.8166L490.122 18.6499M495.006 24.8166L496.25 12.7339M490.122 18.6499H482.565M490.122 18.6499V9.79885" stroke="#7F715A" stroke-width="1.3"/>
<path d="M510.417 44.4837L515.992 37.4837M524.83 12.7343C521.971 14.4093 519.63 16.3426 517.726 18.6504C515.402 21.4668 513.731 24.8409 512.566 28.9837C511.364 33.2558 510.701 38.3453 510.417 44.4837C517.336 43.2679 522.61 41.4884 526.673 38.848M540.417 6.81702L530.992 18.6504M480.417 6.81702H540.417C539.925 11.2329 539.343 15.1589 538.591 18.6504C538.025 21.2751 537.363 23.6542 536.57 25.8113C535.539 28.6157 534.287 31.0448 532.738 33.1504M524.83 12.7343C526.664 11.6598 528.711 10.6917 530.992 9.79926C533.773 8.71123 536.901 7.73565 540.417 6.81702M515.992 37.4837L526.673 38.848M515.992 37.4837L520.638 31.6504M515.992 37.4837L512.566 28.9837M526.673 38.848C529.094 37.2752 531.085 35.3969 532.738 33.1504M520.638 31.6504L532.738 33.1504M520.638 31.6504L526.08 24.817M520.638 31.6504L517.726 18.6504M526.08 24.817L536.57 25.8113M526.08 24.817L530.992 18.6504M526.08 24.817L524.83 12.7343M530.992 18.6504H538.591M530.992 18.6504V9.79926M480.417 0.650359H540.417M480.417 44.4837H540.417M540.417 50.817H480.417" stroke="#7F715A" stroke-width="1.3"/>
<path d="M750.583 44.4833L745.039 37.4833M736.25 12.7339C739.093 14.4088 741.421 16.3422 743.314 18.6499C745.625 21.4664 747.287 24.8405 748.446 28.9833C749.641 33.2554 750.3 38.3449 750.583 44.4833C743.702 43.2675 738.457 41.488 734.416 38.8476C732.009 37.2748 730.03 35.3965 728.386 33.1499M720.75 6.81662L730.122 18.6499M736.25 12.7339C734.426 11.6594 732.391 10.6913 730.122 9.79885C727.357 8.71082 724.245 7.73524 720.75 6.81662C721.239 11.2325 721.817 15.1585 722.565 18.6499C723.128 21.2746 723.786 23.6538 724.575 25.8109C725.6 28.6152 726.846 31.0443 728.386 33.1499M745.039 37.4833L734.416 38.8476M745.039 37.4833L740.419 31.6499M745.039 37.4833L748.446 28.9833M740.419 31.6499L728.386 33.1499M740.419 31.6499L735.006 24.8166M740.419 31.6499L743.314 18.6499M735.006 24.8166L724.575 25.8109M735.006 24.8166L730.122 18.6499M735.006 24.8166L736.25 12.7339M730.122 18.6499H722.565M730.122 18.6499V9.79885" stroke="#7F715A" stroke-width="1.3"/>
<path d="M750.417 44.4837L755.992 37.4837M764.83 12.7343C761.971 14.4093 759.63 16.3426 757.726 18.6504C755.402 21.4668 753.731 24.8409 752.566 28.9837C751.364 33.2558 750.701 38.3453 750.417 44.4837C757.336 43.2679 762.61 41.4884 766.673 38.848M780.417 6.81702L770.992 18.6504M720.417 6.81702H780.417C779.925 11.2329 779.343 15.1589 778.591 18.6504C778.025 21.2751 777.363 23.6542 776.57 25.8113C775.539 28.6157 774.287 31.0448 772.738 33.1504M764.83 12.7343C766.664 11.6598 768.711 10.6917 770.992 9.79926C773.773 8.71123 776.901 7.73565 780.417 6.81702M755.992 37.4837L766.673 38.848M755.992 37.4837L760.638 31.6504M755.992 37.4837L752.566 28.9837M766.673 38.848C769.094 37.2752 771.085 35.3969 772.738 33.1504M760.638 31.6504L772.738 33.1504M760.638 31.6504L766.08 24.817M760.638 31.6504L757.726 18.6504M766.08 24.817L776.57 25.8113M766.08 24.817L770.992 18.6504M766.08 24.817L764.83 12.7343M770.992 18.6504H778.591M770.992 18.6504V9.79926M720.417 0.650359H780.417M720.417 44.4837H780.417M780.417 50.817H720.417" stroke="#7F715A" stroke-width="1.3"/>
<path d="M150.583 44.4833L145.039 37.4833M136.25 12.7339C139.093 14.4088 141.421 16.3422 143.314 18.6499C145.625 21.4664 147.287 24.8405 148.446 28.9833C149.641 33.2554 150.3 38.3449 150.583 44.4833C143.702 43.2675 138.457 41.488 134.416 38.8476C132.009 37.2748 130.03 35.3965 128.386 33.1499M120.75 6.81662L130.122 18.6499M136.25 12.7339C134.426 11.6594 132.391 10.6913 130.122 9.79885C127.357 8.71082 124.245 7.73524 120.75 6.81662C121.239 11.2325 121.817 15.1585 122.565 18.6499C123.128 21.2746 123.786 23.6538 124.575 25.8109C125.6 28.6152 126.846 31.0443 128.386 33.1499M145.039 37.4833L134.416 38.8476M145.039 37.4833L140.419 31.6499M145.039 37.4833L148.446 28.9833M140.419 31.6499L128.386 33.1499M140.419 31.6499L135.006 24.8166M140.419 31.6499L143.314 18.6499M135.006 24.8166L124.575 25.8109M135.006 24.8166L130.122 18.6499M135.006 24.8166L136.25 12.7339M130.122 18.6499H122.565M130.122 18.6499V9.79885" stroke="#7F715A" stroke-width="1.3"/>
<path d="M150.416 44.4837L155.991 37.4837M164.829 12.7343C161.97 14.4093 159.629 16.3426 157.725 18.6504C155.402 21.4668 153.73 24.8409 152.565 28.9837C151.363 33.2558 150.7 38.3453 150.416 44.4837C157.335 43.2679 162.61 41.4884 166.673 38.848M180.416 6.81702L170.991 18.6504M120.416 6.81702H180.416C179.924 11.2329 179.343 15.1589 178.59 18.6504C178.025 21.2751 177.363 23.6542 176.569 25.8113C175.538 28.6157 174.286 31.0448 172.737 33.1504M164.829 12.7343C166.663 11.6598 168.71 10.6917 170.991 9.79926C173.772 8.71123 176.901 7.73565 180.416 6.81702M155.991 37.4837L166.673 38.848M155.991 37.4837L160.637 31.6504M155.991 37.4837L152.565 28.9837M166.673 38.848C169.093 37.2752 171.084 35.3969 172.737 33.1504M160.637 31.6504L172.737 33.1504M160.637 31.6504L166.08 24.817M160.637 31.6504L157.725 18.6504M166.08 24.817L176.569 25.8113M166.08 24.817L170.991 18.6504M166.08 24.817L164.829 12.7343M170.991 18.6504H178.59M170.991 18.6504V9.79926M120.416 0.650359H180.416M120.416 44.4837H180.416M180.416 50.817H120.416" stroke="#7F715A" stroke-width="1.3"/>
<path d="M390.583 44.4833L385.039 37.4833M376.25 12.7339C379.093 14.4088 381.421 16.3422 383.314 18.6499C385.625 21.4664 387.287 24.8405 388.446 28.9833C389.641 33.2554 390.3 38.3449 390.583 44.4833C383.702 43.2675 378.457 41.488 374.416 38.8476C372.009 37.2748 370.03 35.3965 368.386 33.1499M360.75 6.81662L370.122 18.6499M376.25 12.7339C374.426 11.6594 372.391 10.6913 370.122 9.79885C367.357 8.71082 364.245 7.73524 360.75 6.81662C361.239 11.2325 361.817 15.1585 362.565 18.6499C363.128 21.2746 363.786 23.6538 364.575 25.8109C365.6 28.6152 366.846 31.0443 368.386 33.1499M385.039 37.4833L374.416 38.8476M385.039 37.4833L380.419 31.6499M385.039 37.4833L388.446 28.9833M380.419 31.6499L368.386 33.1499M380.419 31.6499L375.006 24.8166M380.419 31.6499L383.314 18.6499M375.006 24.8166L364.575 25.8109M375.006 24.8166L370.122 18.6499M375.006 24.8166L376.25 12.7339M370.122 18.6499H362.565M370.122 18.6499V9.79885" stroke="#7F715A" stroke-width="1.3"/>
<path d="M390.417 44.4837L395.992 37.4837M404.83 12.7343C401.971 14.4093 399.63 16.3426 397.726 18.6504C395.402 21.4668 393.731 24.8409 392.566 28.9837C391.364 33.2558 390.701 38.3453 390.417 44.4837C397.336 43.2679 402.61 41.4884 406.673 38.848M420.417 6.81702L410.992 18.6504M360.417 6.81702H420.417C419.925 11.2329 419.343 15.1589 418.591 18.6504C418.025 21.2751 417.363 23.6542 416.57 25.8113C415.539 28.6157 414.287 31.0448 412.738 33.1504M404.83 12.7343C406.664 11.6598 408.711 10.6917 410.992 9.79926C413.773 8.71123 416.901 7.73565 420.417 6.81702M395.992 37.4837L406.673 38.848M395.992 37.4837L400.638 31.6504M395.992 37.4837L392.566 28.9837M406.673 38.848C409.094 37.2752 411.085 35.3969 412.738 33.1504M400.638 31.6504L412.738 33.1504M400.638 31.6504L406.08 24.817M400.638 31.6504L397.726 18.6504M406.08 24.817L416.57 25.8113M406.08 24.817L410.992 18.6504M406.08 24.817L404.83 12.7343M410.992 18.6504H418.591M410.992 18.6504V9.79926M360.417 0.650359H420.417M360.417 44.4837H420.417M420.417 50.817H360.417" stroke="#7F715A" stroke-width="1.3"/>
<path d="M630.583 44.4833L625.039 37.4833M616.25 12.7339C619.093 14.4088 621.421 16.3422 623.314 18.6499C625.625 21.4664 627.287 24.8405 628.446 28.9833C629.641 33.2554 630.3 38.3449 630.583 44.4833C623.702 43.2675 618.457 41.488 614.416 38.8476C612.009 37.2748 610.03 35.3965 608.386 33.1499M600.75 6.81662L610.122 18.6499M616.25 12.7339C614.426 11.6594 612.391 10.6913 610.122 9.79885C607.357 8.71082 604.245 7.73524 600.75 6.81662C601.239 11.2325 601.817 15.1585 602.565 18.6499C603.128 21.2746 603.786 23.6538 604.575 25.8109C605.6 28.6152 606.846 31.0443 608.386 33.1499M625.039 37.4833L614.416 38.8476M625.039 37.4833L620.419 31.6499M625.039 37.4833L628.446 28.9833M620.419 31.6499L608.386 33.1499M620.419 31.6499L615.006 24.8166M620.419 31.6499L623.314 18.6499M615.006 24.8166L604.575 25.8109M615.006 24.8166L610.122 18.6499M615.006 24.8166L616.25 12.7339M610.122 18.6499H602.565M610.122 18.6499V9.79885" stroke="#7F715A" stroke-width="1.3"/>
<path d="M630.416 44.4837L635.991 37.4837M644.829 12.7343C641.97 14.4093 639.629 16.3426 637.725 18.6504C635.402 21.4668 633.73 24.8409 632.565 28.9837C631.363 33.2558 630.7 38.3453 630.416 44.4837C637.335 43.2679 642.61 41.4884 646.673 38.848M660.416 6.81702L650.991 18.6504M600.416 6.81702H660.416C659.924 11.2329 659.343 15.1589 658.59 18.6504C658.025 21.2751 657.363 23.6542 656.569 25.8113C655.538 28.6157 654.286 31.0448 652.737 33.1504M644.829 12.7343C646.663 11.6598 648.71 10.6917 650.991 9.79926C653.772 8.71123 656.901 7.73565 660.416 6.81702M635.991 37.4837L646.673 38.848M635.991 37.4837L640.637 31.6504M635.991 37.4837L632.565 28.9837M646.673 38.848C649.093 37.2752 651.084 35.3969 652.737 33.1504M640.637 31.6504L652.737 33.1504M640.637 31.6504L646.08 24.817M640.637 31.6504L637.725 18.6504M646.08 24.817L656.569 25.8113M646.08 24.817L650.991 18.6504M646.08 24.817L644.829 12.7343M650.991 18.6504H658.59M650.991 18.6504V9.79926M600.416 0.650359H660.416M600.416 44.4837H660.416M660.416 50.817H600.416" stroke="#7F715A" stroke-width="1.3"/>
<path d="M870.583 44.4833L865.039 37.4833M856.25 12.7339C859.093 14.4088 861.421 16.3422 863.314 18.6499C865.625 21.4664 867.287 24.8405 868.446 28.9833C869.641 33.2554 870.3 38.3449 870.583 44.4833C863.702 43.2675 858.457 41.488 854.416 38.8476C852.009 37.2748 850.03 35.3965 848.386 33.1499M840.75 6.81662L850.122 18.6499M856.25 12.7339C854.426 11.6594 852.391 10.6913 850.122 9.79885C847.357 8.71082 844.245 7.73524 840.75 6.81662C841.239 11.2325 841.817 15.1585 842.565 18.6499C843.128 21.2746 843.786 23.6538 844.575 25.8109C845.6 28.6152 846.846 31.0443 848.386 33.1499M865.039 37.4833L854.416 38.8476M865.039 37.4833L860.419 31.6499M865.039 37.4833L868.446 28.9833M860.419 31.6499L848.386 33.1499M860.419 31.6499L855.006 24.8166M860.419 31.6499L863.314 18.6499M855.006 24.8166L844.575 25.8109M855.006 24.8166L850.122 18.6499M855.006 24.8166L856.25 12.7339M850.122 18.6499H842.565M850.122 18.6499V9.79885" stroke="#7F715A" stroke-width="1.3"/>
<path d="M870.416 44.4837L875.991 37.4837M884.829 12.7343C881.97 14.4093 879.629 16.3426 877.725 18.6504C875.402 21.4668 873.73 24.8409 872.565 28.9837C871.363 33.2558 870.7 38.3453 870.416 44.4837C877.335 43.2679 882.61 41.4884 886.673 38.848M900.416 6.81702L890.991 18.6504M840.416 6.81702H900.416C899.924 11.2329 899.343 15.1589 898.59 18.6504C898.025 21.2751 897.363 23.6542 896.569 25.8113C895.538 28.6157 894.286 31.0448 892.737 33.1504M884.829 12.7343C886.663 11.6598 888.71 10.6917 890.991 9.79926C893.772 8.71123 896.901 7.73565 900.416 6.81702M875.991 37.4837L886.673 38.848M875.991 37.4837L880.637 31.6504M875.991 37.4837L872.565 28.9837M886.673 38.848C889.093 37.2752 891.084 35.3969 892.737 33.1504M880.637 31.6504L892.737 33.1504M880.637 31.6504L886.08 24.817M880.637 31.6504L877.725 18.6504M886.08 24.817L896.569 25.8113M886.08 24.817L890.991 18.6504M886.08 24.817L884.829 12.7343M890.991 18.6504H898.59M890.991 18.6504V9.79926M840.416 0.650359H900.416M840.416 44.4837H900.416M900.416 50.817H840.416" stroke="#7F715A" stroke-width="1.3"/>
<path d="M90.5831 44.4833L85.0388 37.4833M76.2498 12.7339C79.0929 14.4088 81.4212 16.3422 83.3144 18.6499C85.6249 21.4664 87.2872 24.8405 88.446 28.9833C89.6409 33.2554 90.3004 38.3449 90.5831 44.4833C83.7021 43.2675 78.4571 41.488 74.4164 38.8476C72.0094 37.2748 70.0297 35.3965 68.386 33.1499M60.7498 6.81662L70.1222 18.6499M76.2498 12.7339C74.426 11.6594 72.3905 10.6913 70.1222 9.79885C67.3567 8.71082 64.2453 7.73524 60.7498 6.81662C61.2388 11.2325 61.8171 15.1585 62.5653 18.6499C63.1278 21.2746 63.7863 23.6538 64.5749 25.8109C65.6002 28.6152 66.8455 31.0443 68.386 33.1499M85.0388 37.4833L74.4164 38.8476M85.0388 37.4833L80.4186 31.6499M85.0388 37.4833L88.446 28.9833M80.4186 31.6499L68.386 33.1499M80.4186 31.6499L75.0064 24.8166M80.4186 31.6499L83.3144 18.6499M75.0064 24.8166L64.5749 25.8109M75.0064 24.8166L70.1222 18.6499M75.0064 24.8166L76.2498 12.7339M70.1222 18.6499H62.5653M70.1222 18.6499V9.79885" stroke="#7F715A" stroke-width="1.3"/>
<path d="M90.4165 44.4837L95.9917 37.4837M104.83 12.7343C101.971 14.4093 99.6295 16.3426 97.7258 18.6504C95.4024 21.4668 93.7308 24.8409 92.5656 28.9837C91.364 33.2558 90.7008 38.3453 90.4165 44.4837C97.336 43.2679 102.61 41.4884 106.673 38.848M120.417 6.81702L110.992 18.6504M60.4165 6.81702H120.417C119.925 11.2329 119.343 15.1589 118.591 18.6504C118.025 21.2751 117.363 23.6542 116.57 25.8113C115.539 28.6157 114.287 31.0448 112.738 33.1504M104.83 12.7343C106.664 11.6598 108.711 10.6917 110.992 9.79926C113.773 8.71123 116.901 7.73565 120.417 6.81702M95.9917 37.4837L106.673 38.848M95.9917 37.4837L100.638 31.6504M95.9917 37.4837L92.5656 28.9837M106.673 38.848C109.094 37.2752 111.085 35.3969 112.738 33.1504M100.638 31.6504L112.738 33.1504M100.638 31.6504L106.08 24.817M100.638 31.6504L97.7258 18.6504M106.08 24.817L116.57 25.8113M106.08 24.817L110.992 18.6504M106.08 24.817L104.83 12.7343M110.992 18.6504H118.591M110.992 18.6504V9.79926M60.4165 0.650359H120.417M60.4165 44.4837H120.417M120.417 50.817H60.4165" stroke="#7F715A" stroke-width="1.3"/>
<path d="M270.583 44.4833L265.039 37.4833M256.25 12.7339C259.093 14.4088 261.421 16.3422 263.314 18.6499C265.625 21.4664 267.287 24.8405 268.446 28.9833C269.641 33.2554 270.3 38.3449 270.583 44.4833C263.702 43.2675 258.457 41.488 254.416 38.8476C252.009 37.2748 250.03 35.3965 248.386 33.1499M240.75 6.81662L250.122 18.6499M256.25 12.7339C254.426 11.6594 252.391 10.6913 250.122 9.79885C247.357 8.71082 244.245 7.73524 240.75 6.81662C241.239 11.2325 241.817 15.1585 242.565 18.6499C243.128 21.2746 243.786 23.6538 244.575 25.8109C245.6 28.6152 246.846 31.0443 248.386 33.1499M265.039 37.4833L254.416 38.8476M265.039 37.4833L260.419 31.6499M265.039 37.4833L268.446 28.9833M260.419 31.6499L248.386 33.1499M260.419 31.6499L255.006 24.8166M260.419 31.6499L263.314 18.6499M255.006 24.8166L244.575 25.8109M255.006 24.8166L250.122 18.6499M255.006 24.8166L256.25 12.7339M250.122 18.6499H242.565M250.122 18.6499V9.79885" stroke="#7F715A" stroke-width="1.3"/>
<path d="M270.416 44.4837L275.991 37.4837M284.829 12.7343C281.97 14.4093 279.629 16.3426 277.725 18.6504C275.402 21.4668 273.73 24.8409 272.565 28.9837C271.363 33.2558 270.7 38.3453 270.416 44.4837C277.335 43.2679 282.61 41.4884 286.673 38.848M300.416 6.81702L290.991 18.6504M240.416 6.81702H300.416C299.924 11.2329 299.343 15.1589 298.59 18.6504C298.025 21.2751 297.363 23.6542 296.569 25.8113C295.538 28.6157 294.286 31.0448 292.737 33.1504M284.829 12.7343C286.663 11.6598 288.71 10.6917 290.991 9.79926C293.772 8.71123 296.901 7.73565 300.416 6.81702M275.991 37.4837L286.673 38.848M275.991 37.4837L280.637 31.6504M275.991 37.4837L272.565 28.9837M286.673 38.848C289.093 37.2752 291.084 35.3969 292.737 33.1504M280.637 31.6504L292.737 33.1504M280.637 31.6504L286.08 24.817M280.637 31.6504L277.725 18.6504M286.08 24.817L296.569 25.8113M286.08 24.817L290.991 18.6504M286.08 24.817L284.829 12.7343M290.991 18.6504H298.59M290.991 18.6504V9.79926M240.416 0.650359H300.416M240.416 44.4837H300.416M300.416 50.817H240.416" stroke="#7F715A" stroke-width="1.3"/>
<path d="M510.583 44.4833L505.039 37.4833M496.25 12.7339C499.093 14.4088 501.421 16.3422 503.314 18.6499C505.625 21.4664 507.287 24.8405 508.446 28.9833C509.641 33.2554 510.3 38.3449 510.583 44.4833C503.702 43.2675 498.457 41.488 494.416 38.8476C492.009 37.2748 490.03 35.3965 488.386 33.1499M480.75 6.81662L490.122 18.6499M496.25 12.7339C494.426 11.6594 492.391 10.6913 490.122 9.79885C487.357 8.71082 484.245 7.73524 480.75 6.81662C481.239 11.2325 481.817 15.1585 482.565 18.6499C483.128 21.2746 483.786 23.6538 484.575 25.8109C485.6 28.6152 486.846 31.0443 488.386 33.1499M505.039 37.4833L494.416 38.8476M505.039 37.4833L500.419 31.6499M505.039 37.4833L508.446 28.9833M500.419 31.6499L488.386 33.1499M500.419 31.6499L495.006 24.8166M500.419 31.6499L503.314 18.6499M495.006 24.8166L484.575 25.8109M495.006 24.8166L490.122 18.6499M495.006 24.8166L496.25 12.7339M490.122 18.6499H482.565M490.122 18.6499V9.79885" stroke="#7F715A" stroke-width="1.3"/>
<path d="M510.417 44.4837L515.992 37.4837M524.83 12.7343C521.971 14.4093 519.63 16.3426 517.726 18.6504C515.402 21.4668 513.731 24.8409 512.566 28.9837C511.364 33.2558 510.701 38.3453 510.417 44.4837C517.336 43.2679 522.61 41.4884 526.673 38.848M540.417 6.81702L530.992 18.6504M480.417 6.81702H540.417C539.925 11.2329 539.343 15.1589 538.591 18.6504C538.025 21.2751 537.363 23.6542 536.57 25.8113C535.539 28.6157 534.287 31.0448 532.738 33.1504M524.83 12.7343C526.664 11.6598 528.711 10.6917 530.992 9.79926C533.773 8.71123 536.901 7.73565 540.417 6.81702M515.992 37.4837L526.673 38.848M515.992 37.4837L520.638 31.6504M515.992 37.4837L512.566 28.9837M526.673 38.848C529.094 37.2752 531.085 35.3969 532.738 33.1504M520.638 31.6504L532.738 33.1504M520.638 31.6504L526.08 24.817M520.638 31.6504L517.726 18.6504M526.08 24.817L536.57 25.8113M526.08 24.817L530.992 18.6504M526.08 24.817L524.83 12.7343M530.992 18.6504H538.591M530.992 18.6504V9.79926M480.417 0.650359H540.417M480.417 44.4837H540.417M540.417 50.817H480.417" stroke="#7F715A" stroke-width="1.3"/>
<path d="M750.583 44.4833L745.039 37.4833M736.25 12.7339C739.093 14.4088 741.421 16.3422 743.314 18.6499C745.625 21.4664 747.287 24.8405 748.446 28.9833C749.641 33.2554 750.3 38.3449 750.583 44.4833C743.702 43.2675 738.457 41.488 734.416 38.8476C732.009 37.2748 730.03 35.3965 728.386 33.1499M720.75 6.81662L730.122 18.6499M736.25 12.7339C734.426 11.6594 732.391 10.6913 730.122 9.79885C727.357 8.71082 724.245 7.73524 720.75 6.81662C721.239 11.2325 721.817 15.1585 722.565 18.6499C723.128 21.2746 723.786 23.6538 724.575 25.8109C725.6 28.6152 726.846 31.0443 728.386 33.1499M745.039 37.4833L734.416 38.8476M745.039 37.4833L740.419 31.6499M745.039 37.4833L748.446 28.9833M740.419 31.6499L728.386 33.1499M740.419 31.6499L735.006 24.8166M740.419 31.6499L743.314 18.6499M735.006 24.8166L724.575 25.8109M735.006 24.8166L730.122 18.6499M735.006 24.8166L736.25 12.7339M730.122 18.6499H722.565M730.122 18.6499V9.79885" stroke="#7F715A" stroke-width="1.3"/>
<path d="M750.417 44.4837L755.992 37.4837M764.83 12.7343C761.971 14.4093 759.63 16.3426 757.726 18.6504C755.402 21.4668 753.731 24.8409 752.566 28.9837C751.364 33.2558 750.701 38.3453 750.417 44.4837C757.336 43.2679 762.61 41.4884 766.673 38.848M780.417 6.81702L770.992 18.6504M720.417 6.81702H780.417C779.925 11.2329 779.343 15.1589 778.591 18.6504C778.025 21.2751 777.363 23.6542 776.57 25.8113C775.539 28.6157 774.287 31.0448 772.738 33.1504M764.83 12.7343C766.664 11.6598 768.711 10.6917 770.992 9.79926C773.773 8.71123 776.901 7.73565 780.417 6.81702M755.992 37.4837L766.673 38.848M755.992 37.4837L760.638 31.6504M755.992 37.4837L752.566 28.9837M766.673 38.848C769.094 37.2752 771.085 35.3969 772.738 33.1504M760.638 31.6504L772.738 33.1504M760.638 31.6504L766.08 24.817M760.638 31.6504L757.726 18.6504M766.08 24.817L776.57 25.8113M766.08 24.817L770.992 18.6504M766.08 24.817L764.83 12.7343M770.992 18.6504H778.591M770.992 18.6504V9.79926M720.417 0.650359H780.417M720.417 44.4837H780.417M780.417 50.817H720.417" stroke="#7F715A" stroke-width="1.3"/>
<path d="M150.583 44.4833L145.039 37.4833M136.25 12.7339C139.093 14.4088 141.421 16.3422 143.314 18.6499C145.625 21.4664 147.287 24.8405 148.446 28.9833C149.641 33.2554 150.3 38.3449 150.583 44.4833C143.702 43.2675 138.457 41.488 134.416 38.8476C132.009 37.2748 130.03 35.3965 128.386 33.1499M120.75 6.81662L130.122 18.6499M136.25 12.7339C134.426 11.6594 132.391 10.6913 130.122 9.79885C127.357 8.71082 124.245 7.73524 120.75 6.81662C121.239 11.2325 121.817 15.1585 122.565 18.6499C123.128 21.2746 123.786 23.6538 124.575 25.8109C125.6 28.6152 126.846 31.0443 128.386 33.1499M145.039 37.4833L134.416 38.8476M145.039 37.4833L140.419 31.6499M145.039 37.4833L148.446 28.9833M140.419 31.6499L128.386 33.1499M140.419 31.6499L135.006 24.8166M140.419 31.6499L143.314 18.6499M135.006 24.8166L124.575 25.8109M135.006 24.8166L130.122 18.6499M135.006 24.8166L136.25 12.7339M130.122 18.6499H122.565M130.122 18.6499V9.79885" stroke="#7F715A" stroke-width="1.3"/>
<path d="M150.416 44.4837L155.991 37.4837M164.829 12.7343C161.97 14.4093 159.629 16.3426 157.725 18.6504C155.402 21.4668 153.73 24.8409 152.565 28.9837C151.363 33.2558 150.7 38.3453 150.416 44.4837C157.335 43.2679 162.61 41.4884 166.673 38.848M180.416 6.81702L170.991 18.6504M120.416 6.81702H180.416C179.924 11.2329 179.343 15.1589 178.59 18.6504C178.025 21.2751 177.363 23.6542 176.569 25.8113C175.538 28.6157 174.286 31.0448 172.737 33.1504M164.829 12.7343C166.663 11.6598 168.71 10.6917 170.991 9.79926C173.772 8.71123 176.901 7.73565 180.416 6.81702M155.991 37.4837L166.673 38.848M155.991 37.4837L160.637 31.6504M155.991 37.4837L152.565 28.9837M166.673 38.848C169.093 37.2752 171.084 35.3969 172.737 33.1504M160.637 31.6504L172.737 33.1504M160.637 31.6504L166.08 24.817M160.637 31.6504L157.725 18.6504M166.08 24.817L176.569 25.8113M166.08 24.817L170.991 18.6504M166.08 24.817L164.829 12.7343M170.991 18.6504H178.59M170.991 18.6504V9.79926M120.416 0.650359H180.416M120.416 44.4837H180.416M180.416 50.817H120.416" stroke="#7F715A" stroke-width="1.3"/>
<path d="M390.583 44.4833L385.039 37.4833M376.25 12.7339C379.093 14.4088 381.421 16.3422 383.314 18.6499C385.625 21.4664 387.287 24.8405 388.446 28.9833C389.641 33.2554 390.3 38.3449 390.583 44.4833C383.702 43.2675 378.457 41.488 374.416 38.8476C372.009 37.2748 370.03 35.3965 368.386 33.1499M360.75 6.81662L370.122 18.6499M376.25 12.7339C374.426 11.6594 372.391 10.6913 370.122 9.79885C367.357 8.71082 364.245 7.73524 360.75 6.81662C361.239 11.2325 361.817 15.1585 362.565 18.6499C363.128 21.2746 363.786 23.6538 364.575 25.8109C365.6 28.6152 366.846 31.0443 368.386 33.1499M385.039 37.4833L374.416 38.8476M385.039 37.4833L380.419 31.6499M385.039 37.4833L388.446 28.9833M380.419 31.6499L368.386 33.1499M380.419 31.6499L375.006 24.8166M380.419 31.6499L383.314 18.6499M375.006 24.8166L364.575 25.8109M375.006 24.8166L370.122 18.6499M375.006 24.8166L376.25 12.7339M370.122 18.6499H362.565M370.122 18.6499V9.79885" stroke="#7F715A" stroke-width="1.3"/>
<path d="M390.417 44.4837L395.992 37.4837M404.83 12.7343C401.971 14.4093 399.63 16.3426 397.726 18.6504C395.402 21.4668 393.731 24.8409 392.566 28.9837C391.364 33.2558 390.701 38.3453 390.417 44.4837C397.336 43.2679 402.61 41.4884 406.673 38.848M420.417 6.81702L410.992 18.6504M360.417 6.81702H420.417C419.925 11.2329 419.343 15.1589 418.591 18.6504C418.025 21.2751 417.363 23.6542 416.57 25.8113C415.539 28.6157 414.287 31.0448 412.738 33.1504M404.83 12.7343C406.664 11.6598 408.711 10.6917 410.992 9.79926C413.773 8.71123 416.901 7.73565 420.417 6.81702M395.992 37.4837L406.673 38.848M395.992 37.4837L400.638 31.6504M395.992 37.4837L392.566 28.9837M406.673 38.848C409.094 37.2752 411.085 35.3969 412.738 33.1504M400.638 31.6504L412.738 33.1504M400.638 31.6504L406.08 24.817M400.638 31.6504L397.726 18.6504M406.08 24.817L416.57 25.8113M406.08 24.817L410.992 18.6504M406.08 24.817L404.83 12.7343M410.992 18.6504H418.591M410.992 18.6504V9.79926M360.417 0.650359H420.417M360.417 44.4837H420.417M420.417 50.817H360.417" stroke="#7F715A" stroke-width="1.3"/>
<path d="M630.583 44.4833L625.039 37.4833M616.25 12.7339C619.093 14.4088 621.421 16.3422 623.314 18.6499C625.625 21.4664 627.287 24.8405 628.446 28.9833C629.641 33.2554 630.3 38.3449 630.583 44.4833C623.702 43.2675 618.457 41.488 614.416 38.8476C612.009 37.2748 610.03 35.3965 608.386 33.1499M600.75 6.81662L610.122 18.6499M616.25 12.7339C614.426 11.6594 612.391 10.6913 610.122 9.79885C607.357 8.71082 604.245 7.73524 600.75 6.81662C601.239 11.2325 601.817 15.1585 602.565 18.6499C603.128 21.2746 603.786 23.6538 604.575 25.8109C605.6 28.6152 606.846 31.0443 608.386 33.1499M625.039 37.4833L614.416 38.8476M625.039 37.4833L620.419 31.6499M625.039 37.4833L628.446 28.9833M620.419 31.6499L608.386 33.1499M620.419 31.6499L615.006 24.8166M620.419 31.6499L623.314 18.6499M615.006 24.8166L604.575 25.8109M615.006 24.8166L610.122 18.6499M615.006 24.8166L616.25 12.7339M610.122 18.6499H602.565M610.122 18.6499V9.79885" stroke="#7F715A" stroke-width="1.3"/>
<path d="M630.416 44.4837L635.991 37.4837M644.829 12.7343C641.97 14.4093 639.629 16.3426 637.725 18.6504C635.402 21.4668 633.73 24.8409 632.565 28.9837C631.363 33.2558 630.7 38.3453 630.416 44.4837C637.335 43.2679 642.61 41.4884 646.673 38.848M660.416 6.81702L650.991 18.6504M600.416 6.81702H660.416C659.924 11.2329 659.343 15.1589 658.59 18.6504C658.025 21.2751 657.363 23.6542 656.569 25.8113C655.538 28.6157 654.286 31.0448 652.737 33.1504M644.829 12.7343C646.663 11.6598 648.71 10.6917 650.991 9.79926C653.772 8.71123 656.901 7.73565 660.416 6.81702M635.991 37.4837L646.673 38.848M635.991 37.4837L640.637 31.6504M635.991 37.4837L632.565 28.9837M646.673 38.848C649.093 37.2752 651.084 35.3969 652.737 33.1504M640.637 31.6504L652.737 33.1504M640.637 31.6504L646.08 24.817M640.637 31.6504L637.725 18.6504M646.08 24.817L656.569 25.8113M646.08 24.817L650.991 18.6504M646.08 24.817L644.829 12.7343M650.991 18.6504H658.59M650.991 18.6504V9.79926M600.416 0.650359H660.416M600.416 44.4837H660.416M660.416 50.817H600.416" stroke="#7F715A" stroke-width="1.3"/>
<path d="M870.583 44.4833L865.039 37.4833M856.25 12.7339C859.093 14.4088 861.421 16.3422 863.314 18.6499C865.625 21.4664 867.287 24.8405 868.446 28.9833C869.641 33.2554 870.3 38.3449 870.583 44.4833C863.702 43.2675 858.457 41.488 854.416 38.8476C852.009 37.2748 850.03 35.3965 848.386 33.1499M840.75 6.81662L850.122 18.6499M856.25 12.7339C854.426 11.6594 852.391 10.6913 850.122 9.79885C847.357 8.71082 844.245 7.73524 840.75 6.81662C841.239 11.2325 841.817 15.1585 842.565 18.6499C843.128 21.2746 843.786 23.6538 844.575 25.8109C845.6 28.6152 846.846 31.0443 848.386 33.1499M865.039 37.4833L854.416 38.8476M865.039 37.4833L860.419 31.6499M865.039 37.4833L868.446 28.9833M860.419 31.6499L848.386 33.1499M860.419 31.6499L855.006 24.8166M860.419 31.6499L863.314 18.6499M855.006 24.8166L844.575 25.8109M855.006 24.8166L850.122 18.6499M855.006 24.8166L856.25 12.7339M850.122 18.6499H842.565M850.122 18.6499V9.79885" stroke="#7F715A" stroke-width="1.3"/>
<path d="M870.416 44.4837L875.991 37.4837M884.829 12.7343C881.97 14.4093 879.629 16.3426 877.725 18.6504C875.402 21.4668 873.73 24.8409 872.565 28.9837C871.363 33.2558 870.7 38.3453 870.416 44.4837C877.335 43.2679 882.61 41.4884 886.673 38.848M900.416 6.81702L890.991 18.6504M840.416 6.81702H900.416C899.924 11.2329 899.343 15.1589 898.59 18.6504C898.025 21.2751 897.363 23.6542 896.569 25.8113C895.538 28.6157 894.286 31.0448 892.737 33.1504M884.829 12.7343C886.663 11.6598 888.71 10.6917 890.991 9.79926C893.772 8.71123 896.901 7.73565 900.416 6.81702M875.991 37.4837L886.673 38.848M875.991 37.4837L880.637 31.6504M875.991 37.4837L872.565 28.9837M886.673 38.848C889.093 37.2752 891.084 35.3969 892.737 33.1504M880.637 31.6504L892.737 33.1504M880.637 31.6504L886.08 24.817M880.637 31.6504L877.725 18.6504M886.08 24.817L896.569 25.8113M886.08 24.817L890.991 18.6504M886.08 24.817L884.829 12.7343M890.991 18.6504H898.59M890.991 18.6504V9.79926M840.416 0.650359H900.416M840.416 44.4837H900.416M900.416 50.817H840.416" stroke="#7F715A" stroke-width="1.3"/>
<path d="M90.5831 44.4833L85.0388 37.4833M76.2498 12.7339C79.0929 14.4088 81.4212 16.3422 83.3144 18.6499C85.6249 21.4664 87.2872 24.8405 88.446 28.9833C89.6409 33.2554 90.3004 38.3449 90.5831 44.4833C83.7021 43.2675 78.4571 41.488 74.4164 38.8476C72.0094 37.2748 70.0297 35.3965 68.386 33.1499M60.7498 6.81662L70.1222 18.6499M76.2498 12.7339C74.426 11.6594 72.3905 10.6913 70.1222 9.79885C67.3567 8.71082 64.2453 7.73524 60.7498 6.81662C61.2388 11.2325 61.8171 15.1585 62.5653 18.6499C63.1278 21.2746 63.7863 23.6538 64.5749 25.8109C65.6002 28.6152 66.8455 31.0443 68.386 33.1499M85.0388 37.4833L74.4164 38.8476M85.0388 37.4833L80.4186 31.6499M85.0388 37.4833L88.446 28.9833M80.4186 31.6499L68.386 33.1499M80.4186 31.6499L75.0064 24.8166M80.4186 31.6499L83.3144 18.6499M75.0064 24.8166L64.5749 25.8109M75.0064 24.8166L70.1222 18.6499M75.0064 24.8166L76.2498 12.7339M70.1222 18.6499H62.5653M70.1222 18.6499V9.79885" stroke="#7F715A" stroke-width="1.3"/>
<path d="M90.4165 44.4837L95.9917 37.4837M104.83 12.7343C101.971 14.4093 99.6295 16.3426 97.7258 18.6504C95.4024 21.4668 93.7308 24.8409 92.5656 28.9837C91.364 33.2558 90.7008 38.3453 90.4165 44.4837C97.336 43.2679 102.61 41.4884 106.673 38.848M120.417 6.81702L110.992 18.6504M60.4165 6.81702H120.417C119.925 11.2329 119.343 15.1589 118.591 18.6504C118.025 21.2751 117.363 23.6542 116.57 25.8113C115.539 28.6157 114.287 31.0448 112.738 33.1504M104.83 12.7343C106.664 11.6598 108.711 10.6917 110.992 9.79926C113.773 8.71123 116.901 7.73565 120.417 6.81702M95.9917 37.4837L106.673 38.848M95.9917 37.4837L100.638 31.6504M95.9917 37.4837L92.5656 28.9837M106.673 38.848C109.094 37.2752 111.085 35.3969 112.738 33.1504M100.638 31.6504L112.738 33.1504M100.638 31.6504L106.08 24.817M100.638 31.6504L97.7258 18.6504M106.08 24.817L116.57 25.8113M106.08 24.817L110.992 18.6504M106.08 24.817L104.83 12.7343M110.992 18.6504H118.591M110.992 18.6504V9.79926M60.4165 0.650359H120.417M60.4165 44.4837H120.417M120.417 50.817H60.4165" stroke="#7F715A" stroke-width="1.3"/>
<path d="M330.583 44.4833L325.039 37.4833M316.25 12.7339C319.093 14.4088 321.421 16.3422 323.314 18.6499C325.625 21.4664 327.287 24.8405 328.446 28.9833C329.641 33.2554 330.3 38.3449 330.583 44.4833C323.702 43.2675 318.457 41.488 314.416 38.8476C312.009 37.2748 310.03 35.3965 308.386 33.1499M300.75 6.81662L310.122 18.6499M316.25 12.7339C314.426 11.6594 312.391 10.6913 310.122 9.79885C307.357 8.71082 304.245 7.73524 300.75 6.81662C301.239 11.2325 301.817 15.1585 302.565 18.6499C303.128 21.2746 303.786 23.6538 304.575 25.8109C305.6 28.6152 306.846 31.0443 308.386 33.1499M325.039 37.4833L314.416 38.8476M325.039 37.4833L320.419 31.6499M325.039 37.4833L328.446 28.9833M320.419 31.6499L308.386 33.1499M320.419 31.6499L315.006 24.8166M320.419 31.6499L323.314 18.6499M315.006 24.8166L304.575 25.8109M315.006 24.8166L310.122 18.6499M315.006 24.8166L316.25 12.7339M310.122 18.6499H302.565M310.122 18.6499V9.79885" stroke="#7F715A" stroke-width="1.3"/>
<path d="M330.416 44.4837L335.991 37.4837M344.829 12.7343C341.97 14.4093 339.629 16.3426 337.725 18.6504C335.402 21.4668 333.73 24.8409 332.565 28.9837C331.363 33.2558 330.7 38.3453 330.416 44.4837C337.335 43.2679 342.61 41.4884 346.673 38.848M360.416 6.81702L350.991 18.6504M300.416 6.81702H360.416C359.924 11.2329 359.343 15.1589 358.59 18.6504C358.025 21.2751 357.363 23.6542 356.569 25.8113C355.538 28.6157 354.286 31.0448 352.737 33.1504M344.829 12.7343C346.663 11.6598 348.71 10.6917 350.991 9.79926C353.772 8.71123 356.901 7.73565 360.416 6.81702M335.991 37.4837L346.673 38.848M335.991 37.4837L340.637 31.6504M335.991 37.4837L332.565 28.9837M346.673 38.848C349.093 37.2752 351.084 35.3969 352.737 33.1504M340.637 31.6504L352.737 33.1504M340.637 31.6504L346.08 24.817M340.637 31.6504L337.725 18.6504M346.08 24.817L356.569 25.8113M346.08 24.817L350.991 18.6504M346.08 24.817L344.829 12.7343M350.991 18.6504H358.59M350.991 18.6504V9.79926M300.416 0.650359H360.416M300.416 44.4837H360.416M360.416 50.817H300.416" stroke="#7F715A" stroke-width="1.3"/>
<path d="M570.583 44.4833L565.039 37.4833M556.25 12.7339C559.093 14.4088 561.421 16.3422 563.314 18.6499C565.625 21.4664 567.287 24.8405 568.446 28.9833C569.641 33.2554 570.3 38.3449 570.583 44.4833C563.702 43.2675 558.457 41.488 554.416 38.8476C552.009 37.2748 550.03 35.3965 548.386 33.1499M540.75 6.81662L550.122 18.6499M556.25 12.7339C554.426 11.6594 552.391 10.6913 550.122 9.79885C547.357 8.71082 544.245 7.73524 540.75 6.81662C541.239 11.2325 541.817 15.1585 542.565 18.6499C543.128 21.2746 543.786 23.6538 544.575 25.8109C545.6 28.6152 546.846 31.0443 548.386 33.1499M565.039 37.4833L554.416 38.8476M565.039 37.4833L560.419 31.6499M565.039 37.4833L568.446 28.9833M560.419 31.6499L548.386 33.1499M560.419 31.6499L555.006 24.8166M560.419 31.6499L563.314 18.6499M555.006 24.8166L544.575 25.8109M555.006 24.8166L550.122 18.6499M555.006 24.8166L556.25 12.7339M550.122 18.6499H542.565M550.122 18.6499V9.79885" stroke="#7F715A" stroke-width="1.3"/>
<path d="M570.416 44.4837L575.991 37.4837M584.829 12.7343C581.97 14.4093 579.629 16.3426 577.725 18.6504C575.402 21.4668 573.73 24.8409 572.565 28.9837C571.363 33.2558 570.7 38.3453 570.416 44.4837C577.335 43.2679 582.61 41.4884 586.673 38.848M600.416 6.81702L590.991 18.6504M540.416 6.81702H600.416C599.924 11.2329 599.343 15.1589 598.59 18.6504C598.025 21.2751 597.363 23.6542 596.569 25.8113C595.538 28.6157 594.286 31.0448 592.737 33.1504M584.829 12.7343C586.663 11.6598 588.71 10.6917 590.991 9.79926C593.772 8.71123 596.901 7.73565 600.416 6.81702M575.991 37.4837L586.673 38.848M575.991 37.4837L580.637 31.6504M575.991 37.4837L572.565 28.9837M586.673 38.848C589.093 37.2752 591.084 35.3969 592.737 33.1504M580.637 31.6504L592.737 33.1504M580.637 31.6504L586.08 24.817M580.637 31.6504L577.725 18.6504M586.08 24.817L596.569 25.8113M586.08 24.817L590.991 18.6504M586.08 24.817L584.829 12.7343M590.991 18.6504H598.59M590.991 18.6504V9.79926M540.416 0.650359H600.416M540.416 44.4837H600.416M600.416 50.817H540.416" stroke="#7F715A" stroke-width="1.3"/>
<path d="M810.583 44.4833L805.039 37.4833M796.25 12.7339C799.093 14.4088 801.421 16.3422 803.314 18.6499C805.625 21.4664 807.287 24.8405 808.446 28.9833C809.641 33.2554 810.3 38.3449 810.583 44.4833C803.702 43.2675 798.457 41.488 794.416 38.8476C792.009 37.2748 790.03 35.3965 788.386 33.1499M780.75 6.81662L790.122 18.6499M796.25 12.7339C794.426 11.6594 792.391 10.6913 790.122 9.79885C787.357 8.71082 784.245 7.73524 780.75 6.81662C781.239 11.2325 781.817 15.1585 782.565 18.6499C783.128 21.2746 783.786 23.6538 784.575 25.8109C785.6 28.6152 786.846 31.0443 788.386 33.1499M805.039 37.4833L794.416 38.8476M805.039 37.4833L800.419 31.6499M805.039 37.4833L808.446 28.9833M800.419 31.6499L788.386 33.1499M800.419 31.6499L795.006 24.8166M800.419 31.6499L803.314 18.6499M795.006 24.8166L784.575 25.8109M795.006 24.8166L790.122 18.6499M795.006 24.8166L796.25 12.7339M790.122 18.6499H782.565M790.122 18.6499V9.79885" stroke="#7F715A" stroke-width="1.3"/>
<path d="M810.416 44.4837L815.991 37.4837M824.829 12.7343C821.97 14.4093 819.629 16.3426 817.725 18.6504C815.402 21.4668 813.73 24.8409 812.565 28.9837C811.363 33.2558 810.7 38.3453 810.416 44.4837C817.335 43.2679 822.61 41.4884 826.673 38.848M840.416 6.81702L830.991 18.6504M780.416 6.81702H840.416C839.924 11.2329 839.343 15.1589 838.59 18.6504C838.025 21.2751 837.363 23.6542 836.569 25.8113C835.538 28.6157 834.286 31.0448 832.737 33.1504M824.829 12.7343C826.663 11.6598 828.71 10.6917 830.991 9.79926C833.772 8.71123 836.901 7.73565 840.416 6.81702M815.991 37.4837L826.673 38.848M815.991 37.4837L820.637 31.6504M815.991 37.4837L812.565 28.9837M826.673 38.848C829.093 37.2752 831.084 35.3969 832.737 33.1504M820.637 31.6504L832.737 33.1504M820.637 31.6504L826.08 24.817M820.637 31.6504L817.725 18.6504M826.08 24.817L836.569 25.8113M826.08 24.817L830.991 18.6504M826.08 24.817L824.829 12.7343M830.991 18.6504H838.59M830.991 18.6504V9.79926M780.416 0.650359H840.416M780.416 44.4837H840.416M840.416 50.817H780.416" stroke="#7F715A" stroke-width="1.3"/>
<path d="M810.583 44.4833L805.039 37.4833M796.25 12.7339C799.093 14.4088 801.421 16.3422 803.314 18.6499C805.625 21.4664 807.287 24.8405 808.446 28.9833C809.641 33.2554 810.3 38.3449 810.583 44.4833C803.702 43.2675 798.457 41.488 794.416 38.8476C792.009 37.2748 790.03 35.3965 788.386 33.1499M780.75 6.81662L790.122 18.6499M796.25 12.7339C794.426 11.6594 792.391 10.6913 790.122 9.79885C787.357 8.71082 784.245 7.73524 780.75 6.81662C781.239 11.2325 781.817 15.1585 782.565 18.6499C783.128 21.2746 783.786 23.6538 784.575 25.8109C785.6 28.6152 786.846 31.0443 788.386 33.1499M805.039 37.4833L794.416 38.8476M805.039 37.4833L800.419 31.6499M805.039 37.4833L808.446 28.9833M800.419 31.6499L788.386 33.1499M800.419 31.6499L795.006 24.8166M800.419 31.6499L803.314 18.6499M795.006 24.8166L784.575 25.8109M795.006 24.8166L790.122 18.6499M795.006 24.8166L796.25 12.7339M790.122 18.6499H782.565M790.122 18.6499V9.79885" stroke="#7F715A" stroke-width="1.3"/>
<path d="M810.416 44.4837L815.991 37.4837M824.829 12.7343C821.97 14.4093 819.629 16.3426 817.725 18.6504C815.402 21.4668 813.73 24.8409 812.565 28.9837C811.363 33.2558 810.7 38.3453 810.416 44.4837C817.335 43.2679 822.61 41.4884 826.673 38.848M840.416 6.81702L830.991 18.6504M780.416 6.81702H840.416C839.924 11.2329 839.343 15.1589 838.59 18.6504C838.025 21.2751 837.363 23.6542 836.569 25.8113C835.538 28.6157 834.286 31.0448 832.737 33.1504M824.829 12.7343C826.663 11.6598 828.71 10.6917 830.991 9.79926C833.772 8.71123 836.901 7.73565 840.416 6.81702M815.991 37.4837L826.673 38.848M815.991 37.4837L820.637 31.6504M815.991 37.4837L812.565 28.9837M826.673 38.848C829.093 37.2752 831.084 35.3969 832.737 33.1504M820.637 31.6504L832.737 33.1504M820.637 31.6504L826.08 24.817M820.637 31.6504L817.725 18.6504M826.08 24.817L836.569 25.8113M826.08 24.817L830.991 18.6504M826.08 24.817L824.829 12.7343M830.991 18.6504H838.59M830.991 18.6504V9.79926M780.416 0.650359H840.416M780.416 44.4837H840.416M840.416 50.817H780.416" stroke="#7F715A" stroke-width="1.3"/>
<path d="M210.583 44.4833L205.039 37.4833M196.25 12.7339C199.093 14.4088 201.421 16.3422 203.314 18.6499C205.625 21.4664 207.287 24.8405 208.446 28.9833C209.641 33.2554 210.3 38.3449 210.583 44.4833C203.702 43.2675 198.457 41.488 194.416 38.8476C192.009 37.2748 190.03 35.3965 188.386 33.1499M180.75 6.81662L190.122 18.6499M196.25 12.7339C194.426 11.6594 192.391 10.6913 190.122 9.79885C187.357 8.71082 184.245 7.73524 180.75 6.81662C181.239 11.2325 181.817 15.1585 182.565 18.6499C183.128 21.2746 183.786 23.6538 184.575 25.8109C185.6 28.6152 186.846 31.0443 188.386 33.1499M205.039 37.4833L194.416 38.8476M205.039 37.4833L200.419 31.6499M205.039 37.4833L208.446 28.9833M200.419 31.6499L188.386 33.1499M200.419 31.6499L195.006 24.8166M200.419 31.6499L203.314 18.6499M195.006 24.8166L184.575 25.8109M195.006 24.8166L190.122 18.6499M195.006 24.8166L196.25 12.7339M190.122 18.6499H182.565M190.122 18.6499V9.79885" stroke="#7F715A" stroke-width="1.3"/>
<path d="M210.416 44.4837L215.991 37.4837M224.829 12.7343C221.97 14.4093 219.629 16.3426 217.725 18.6504C215.402 21.4668 213.73 24.8409 212.565 28.9837C211.363 33.2558 210.7 38.3453 210.416 44.4837C217.335 43.2679 222.61 41.4884 226.673 38.848M240.416 6.81702L230.991 18.6504M180.416 6.81702H240.416C239.924 11.2329 239.343 15.1589 238.59 18.6504C238.025 21.2751 237.363 23.6542 236.569 25.8113C235.538 28.6157 234.286 31.0448 232.737 33.1504M224.829 12.7343C226.663 11.6598 228.71 10.6917 230.991 9.79926C233.772 8.71123 236.901 7.73565 240.416 6.81702M215.991 37.4837L226.673 38.848M215.991 37.4837L220.637 31.6504M215.991 37.4837L212.565 28.9837M226.673 38.848C229.093 37.2752 231.084 35.3969 232.737 33.1504M220.637 31.6504L232.737 33.1504M220.637 31.6504L226.08 24.817M220.637 31.6504L217.725 18.6504M226.08 24.817L236.569 25.8113M226.08 24.817L230.991 18.6504M226.08 24.817L224.829 12.7343M230.991 18.6504H238.59M230.991 18.6504V9.79926M180.416 0.650359H240.416M180.416 44.4837H240.416M240.416 50.817H180.416" stroke="#7F715A" stroke-width="1.3"/>
<path d="M450.583 44.4833L445.039 37.4833M436.25 12.7339C439.093 14.4088 441.421 16.3422 443.314 18.6499C445.625 21.4664 447.287 24.8405 448.446 28.9833C449.641 33.2554 450.3 38.3449 450.583 44.4833C443.702 43.2675 438.457 41.488 434.416 38.8476C432.009 37.2748 430.03 35.3965 428.386 33.1499M420.75 6.81662L430.122 18.6499M436.25 12.7339C434.426 11.6594 432.391 10.6913 430.122 9.79885C427.357 8.71082 424.245 7.73524 420.75 6.81662C421.239 11.2325 421.817 15.1585 422.565 18.6499C423.128 21.2746 423.786 23.6538 424.575 25.8109C425.6 28.6152 426.846 31.0443 428.386 33.1499M445.039 37.4833L434.416 38.8476M445.039 37.4833L440.419 31.6499M445.039 37.4833L448.446 28.9833M440.419 31.6499L428.386 33.1499M440.419 31.6499L435.006 24.8166M440.419 31.6499L443.314 18.6499M435.006 24.8166L424.575 25.8109M435.006 24.8166L430.122 18.6499M435.006 24.8166L436.25 12.7339M430.122 18.6499H422.565M430.122 18.6499V9.79885" stroke="#7F715A" stroke-width="1.3"/>
<path d="M450.417 44.4837L455.992 37.4837M464.83 12.7343C461.971 14.4093 459.63 16.3426 457.726 18.6504C455.402 21.4668 453.731 24.8409 452.566 28.9837C451.364 33.2558 450.701 38.3453 450.417 44.4837C457.336 43.2679 462.61 41.4884 466.673 38.848M480.417 6.81702L470.992 18.6504M420.417 6.81702H480.417C479.925 11.2329 479.343 15.1589 478.591 18.6504C478.025 21.2751 477.363 23.6542 476.57 25.8113C475.539 28.6157 474.287 31.0448 472.738 33.1504M464.83 12.7343C466.664 11.6598 468.711 10.6917 470.992 9.79926C473.773 8.71123 476.901 7.73565 480.417 6.81702M455.992 37.4837L466.673 38.848M455.992 37.4837L460.638 31.6504M455.992 37.4837L452.566 28.9837M466.673 38.848C469.094 37.2752 471.085 35.3969 472.738 33.1504M460.638 31.6504L472.738 33.1504M460.638 31.6504L466.08 24.817M460.638 31.6504L457.726 18.6504M466.08 24.817L476.57 25.8113M466.08 24.817L470.992 18.6504M466.08 24.817L464.83 12.7343M470.992 18.6504H478.591M470.992 18.6504V9.79926M420.417 0.650359H480.417M420.417 44.4837H480.417M480.417 50.817H420.417" stroke="#7F715A" stroke-width="1.3"/>
<path d="M690.583 44.4833L685.039 37.4833M676.25 12.7339C679.093 14.4088 681.421 16.3422 683.314 18.6499C685.625 21.4664 687.287 24.8405 688.446 28.9833C689.641 33.2554 690.3 38.3449 690.583 44.4833C683.702 43.2675 678.457 41.488 674.416 38.8476C672.009 37.2748 670.03 35.3965 668.386 33.1499M660.75 6.81662L670.122 18.6499M676.25 12.7339C674.426 11.6594 672.391 10.6913 670.122 9.79885C667.357 8.71082 664.245 7.73524 660.75 6.81662C661.239 11.2325 661.817 15.1585 662.565 18.6499C663.128 21.2746 663.786 23.6538 664.575 25.8109C665.6 28.6152 666.846 31.0443 668.386 33.1499M685.039 37.4833L674.416 38.8476M685.039 37.4833L680.419 31.6499M685.039 37.4833L688.446 28.9833M680.419 31.6499L668.386 33.1499M680.419 31.6499L675.006 24.8166M680.419 31.6499L683.314 18.6499M675.006 24.8166L664.575 25.8109M675.006 24.8166L670.122 18.6499M675.006 24.8166L676.25 12.7339M670.122 18.6499H662.565M670.122 18.6499V9.79885" stroke="#7F715A" stroke-width="1.3"/>
<path d="M690.417 44.4837L695.992 37.4837M704.83 12.7343C701.971 14.4093 699.63 16.3426 697.726 18.6504C695.402 21.4668 693.731 24.8409 692.566 28.9837C691.364 33.2558 690.701 38.3453 690.417 44.4837C697.336 43.2679 702.61 41.4884 706.673 38.848M720.417 6.81702L710.992 18.6504M660.417 6.81702H720.417C719.925 11.2329 719.343 15.1589 718.591 18.6504C718.025 21.2751 717.363 23.6542 716.57 25.8113C715.539 28.6157 714.287 31.0448 712.738 33.1504M704.83 12.7343C706.664 11.6598 708.711 10.6917 710.992 9.79926C713.773 8.71123 716.901 7.73565 720.417 6.81702M695.992 37.4837L706.673 38.848M695.992 37.4837L700.638 31.6504M695.992 37.4837L692.566 28.9837M706.673 38.848C709.094 37.2752 711.085 35.3969 712.738 33.1504M700.638 31.6504L712.738 33.1504M700.638 31.6504L706.08 24.817M700.638 31.6504L697.726 18.6504M706.08 24.817L716.57 25.8113M706.08 24.817L710.992 18.6504M706.08 24.817L704.83 12.7343M710.992 18.6504H718.591M710.992 18.6504V9.79926M660.417 0.650359H720.417M660.417 44.4837H720.417M720.417 50.817H660.417" stroke="#7F715A" stroke-width="1.3"/>
<path d="M930.583 44.4833L925.039 37.4833M916.25 12.7339C919.093 14.4088 921.421 16.3422 923.314 18.6499C925.625 21.4664 927.287 24.8405 928.446 28.9833C929.641 33.2554 930.3 38.3449 930.583 44.4833C923.702 43.2675 918.457 41.488 914.416 38.8476C912.009 37.2748 910.03 35.3965 908.386 33.1499M900.75 6.81662L910.122 18.6499M916.25 12.7339C914.426 11.6594 912.391 10.6913 910.122 9.79885C907.357 8.71082 904.245 7.73524 900.75 6.81662C901.239 11.2325 901.817 15.1585 902.565 18.6499C903.128 21.2746 903.786 23.6538 904.575 25.8109C905.6 28.6152 906.846 31.0443 908.386 33.1499M925.039 37.4833L914.416 38.8476M925.039 37.4833L920.419 31.6499M925.039 37.4833L928.446 28.9833M920.419 31.6499L908.386 33.1499M920.419 31.6499L915.006 24.8166M920.419 31.6499L923.314 18.6499M915.006 24.8166L904.575 25.8109M915.006 24.8166L910.122 18.6499M915.006 24.8166L916.25 12.7339M910.122 18.6499H902.565M910.122 18.6499V9.79885" stroke="#7F715A" stroke-width="1.3"/>
<path d="M930.417 44.4837L935.992 37.4837M944.83 12.7343C941.971 14.4093 939.63 16.3426 937.726 18.6504C935.402 21.4668 933.731 24.8409 932.566 28.9837C931.364 33.2558 930.701 38.3453 930.417 44.4837C937.336 43.2679 942.61 41.4884 946.673 38.848M960.417 6.81702L950.992 18.6504M900.417 6.81702H960.417C959.925 11.2329 959.343 15.1589 958.591 18.6504C958.025 21.2751 957.363 23.6542 956.57 25.8113C955.539 28.6157 954.287 31.0448 952.738 33.1504M944.83 12.7343C946.664 11.6598 948.711 10.6917 950.992 9.79926C953.773 8.71123 956.901 7.73565 960.417 6.81702M935.992 37.4837L946.673 38.848M935.992 37.4837L940.638 31.6504M935.992 37.4837L932.566 28.9837M946.673 38.848C949.094 37.2752 951.085 35.3969 952.738 33.1504M940.638 31.6504L952.738 33.1504M940.638 31.6504L946.08 24.817M940.638 31.6504L937.726 18.6504M946.08 24.817L956.57 25.8113M946.08 24.817L950.992 18.6504M946.08 24.817L944.83 12.7343M950.992 18.6504H958.591M950.992 18.6504V9.79926M900.417 0.650359H960.417M900.417 44.4837H960.417M960.417 50.817H900.417" stroke="#7F715A" stroke-width="1.3"/>
<path d="M990.584 44.4829L985.039 37.4829M976.25 12.7335C979.093 14.4085 981.422 16.3418 983.315 18.6496C985.625 21.466 987.288 24.8401 988.446 28.9829C989.641 33.255 990.301 38.3446 990.584 44.4829C983.703 43.2671 978.458 41.4876 974.417 38.8473C972.01 37.2744 970.03 35.3961 968.387 33.1496M960.75 6.81625L970.123 18.6496M976.25 12.7335C974.427 11.6591 972.391 10.6909 970.123 9.79849C967.357 8.71045 964.246 7.73488 960.75 6.81625C961.239 11.2321 961.818 15.1581 962.566 18.6496C963.128 21.2743 963.787 23.6534 964.575 25.8106C965.601 28.6149 966.846 31.044 968.387 33.1496M985.039 37.4829L974.417 38.8473M985.039 37.4829L980.419 31.6496M985.039 37.4829L988.446 28.9829M980.419 31.6496L968.387 33.1496M980.419 31.6496L975.007 24.8162M980.419 31.6496L983.315 18.6496M975.007 24.8162L964.575 25.8106M975.007 24.8162L970.123 18.6496M975.007 24.8162L976.25 12.7335M970.123 18.6496H962.566M970.123 18.6496V9.79849" stroke="#7F715A" stroke-width="1.3"/>
<path d="M990.417 44.4833L995.992 37.4833M1004.83 12.7339C1001.97 14.4089 999.63 16.3422 997.726 18.65C995.402 21.4664 993.731 24.8405 992.566 28.9833C991.364 33.2554 990.701 38.345 990.417 44.4833C997.336 43.2675 1002.61 41.488 1006.67 38.8477M1020.42 6.81666L1010.99 18.65M960.417 6.81666H1020.42C1019.92 11.2325 1019.34 15.1585 1018.59 18.65C1018.03 21.2747 1017.36 23.6538 1016.57 25.811C1015.54 28.6153 1014.29 31.0444 1012.74 33.15M1004.83 12.7339C1006.66 11.6595 1008.71 10.6914 1010.99 9.7989C1013.77 8.71086 1016.9 7.73529 1020.42 6.81666M995.992 37.4833L1006.67 38.8477M995.992 37.4833L1000.64 31.65M995.992 37.4833L992.566 28.9833M1006.67 38.8477C1009.09 37.2748 1011.08 35.3966 1012.74 33.15M1000.64 31.65L1012.74 33.15M1000.64 31.65L1006.08 24.8167M1000.64 31.65L997.726 18.65M1006.08 24.8167L1016.57 25.811M1006.08 24.8167L1010.99 18.65M1006.08 24.8167L1004.83 12.7339M1010.99 18.65H1018.59M1010.99 18.65V9.7989M960.417 0.649993H1020.42M960.417 44.4833H1020.42M1020.42 50.8167H960.417" stroke="#7F715A" stroke-width="1.3"/>
<path d="M1230.58 44.4829L1225.04 37.4829M1216.25 12.7335C1219.09 14.4085 1221.42 16.3418 1223.31 18.6496C1225.62 21.466 1227.29 24.8401 1228.45 28.9829C1229.64 33.255 1230.3 38.3446 1230.58 44.4829C1223.7 43.2671 1218.46 41.4876 1214.42 38.8473C1212.01 37.2744 1210.03 35.3961 1208.39 33.1496M1200.75 6.81625L1210.12 18.6496M1216.25 12.7335C1214.43 11.6591 1212.39 10.6909 1210.12 9.79849C1207.36 8.71045 1204.25 7.73488 1200.75 6.81625C1201.24 11.2321 1201.82 15.1581 1202.57 18.6496C1203.13 21.2743 1203.79 23.6534 1204.57 25.8106C1205.6 28.6149 1206.85 31.044 1208.39 33.1496M1225.04 37.4829L1214.42 38.8473M1225.04 37.4829L1220.42 31.6496M1225.04 37.4829L1228.45 28.9829M1220.42 31.6496L1208.39 33.1496M1220.42 31.6496L1215.01 24.8162M1220.42 31.6496L1223.31 18.6496M1215.01 24.8162L1204.57 25.8106M1215.01 24.8162L1210.12 18.6496M1215.01 24.8162L1216.25 12.7335M1210.12 18.6496H1202.57M1210.12 18.6496V9.79849" stroke="#7F715A" stroke-width="1.3"/>
<path d="M1230.42 44.4833L1235.99 37.4833M1244.83 12.7339C1241.97 14.4089 1239.63 16.3422 1237.73 18.65C1235.4 21.4664 1233.73 24.8405 1232.57 28.9833C1231.36 33.2554 1230.7 38.345 1230.42 44.4833C1237.34 43.2675 1242.61 41.488 1246.67 38.8477M1260.42 6.81666L1250.99 18.65M1200.42 6.81666H1260.42C1259.92 11.2325 1259.34 15.1585 1258.59 18.65C1258.02 21.2747 1257.36 23.6538 1256.57 25.811C1255.54 28.6153 1254.29 31.0444 1252.74 33.15M1244.83 12.7339C1246.66 11.6595 1248.71 10.6914 1250.99 9.7989C1253.77 8.71086 1256.9 7.73529 1260.42 6.81666M1235.99 37.4833L1246.67 38.8477M1235.99 37.4833L1240.64 31.65M1235.99 37.4833L1232.57 28.9833M1246.67 38.8477C1249.09 37.2748 1251.08 35.3966 1252.74 33.15M1240.64 31.65L1252.74 33.15M1240.64 31.65L1246.08 24.8167M1240.64 31.65L1237.73 18.65M1246.08 24.8167L1256.57 25.811M1246.08 24.8167L1250.99 18.65M1246.08 24.8167L1244.83 12.7339M1250.99 18.65H1258.59M1250.99 18.65V9.7989M1200.42 0.649993H1260.42M1200.42 44.4833H1260.42M1260.42 50.8167H1200.42" stroke="#7F715A" stroke-width="1.3"/>
<path d="M1470.58 44.4829L1465.04 37.4829M1456.25 12.7335C1459.09 14.4085 1461.42 16.3418 1463.31 18.6496C1465.62 21.466 1467.29 24.8401 1468.45 28.9829C1469.64 33.255 1470.3 38.3446 1470.58 44.4829C1463.7 43.2671 1458.46 41.4876 1454.42 38.8473C1452.01 37.2744 1450.03 35.3961 1448.39 33.1496M1440.75 6.81625L1450.12 18.6496M1456.25 12.7335C1454.43 11.6591 1452.39 10.6909 1450.12 9.79849C1447.36 8.71045 1444.25 7.73488 1440.75 6.81625C1441.24 11.2321 1441.82 15.1581 1442.57 18.6496C1443.13 21.2743 1443.79 23.6534 1444.57 25.8106C1445.6 28.6149 1446.85 31.044 1448.39 33.1496M1465.04 37.4829L1454.42 38.8473M1465.04 37.4829L1460.42 31.6496M1465.04 37.4829L1468.45 28.9829M1460.42 31.6496L1448.39 33.1496M1460.42 31.6496L1455.01 24.8162M1460.42 31.6496L1463.31 18.6496M1455.01 24.8162L1444.57 25.8106M1455.01 24.8162L1450.12 18.6496M1455.01 24.8162L1456.25 12.7335M1450.12 18.6496H1442.57M1450.12 18.6496V9.79849" stroke="#7F715A" stroke-width="1.3"/>
<path d="M1470.42 44.4833L1475.99 37.4833M1484.83 12.7339C1481.97 14.4089 1479.63 16.3422 1477.73 18.65C1475.4 21.4664 1473.73 24.8405 1472.57 28.9833C1471.36 33.2554 1470.7 38.345 1470.42 44.4833C1477.34 43.2675 1482.61 41.488 1486.67 38.8477M1500.42 6.81666L1490.99 18.65M1440.42 6.81666H1500.42C1499.92 11.2325 1499.34 15.1585 1498.59 18.65C1498.03 21.2747 1497.36 23.6538 1496.57 25.811C1495.54 28.6153 1494.29 31.0444 1492.74 33.15M1484.83 12.7339C1486.66 11.6595 1488.71 10.6914 1490.99 9.7989C1493.77 8.71086 1496.9 7.73529 1500.42 6.81666M1475.99 37.4833L1486.67 38.8477M1475.99 37.4833L1480.64 31.65M1475.99 37.4833L1472.57 28.9833M1486.67 38.8477C1489.09 37.2748 1491.08 35.3966 1492.74 33.15M1480.64 31.65L1492.74 33.15M1480.64 31.65L1486.08 24.8167M1480.64 31.65L1477.73 18.65M1486.08 24.8167L1496.57 25.811M1486.08 24.8167L1490.99 18.65M1486.08 24.8167L1484.83 12.7339M1490.99 18.65H1498.59M1490.99 18.65V9.7989M1440.42 0.649993H1500.42M1440.42 44.4833H1500.42M1500.42 50.8167H1440.42" stroke="#7F715A" stroke-width="1.3"/>
<path d="M1710.58 44.4829L1705.04 37.4829M1696.25 12.7335C1699.09 14.4085 1701.42 16.3418 1703.31 18.6496C1705.62 21.466 1707.29 24.8401 1708.45 28.9829C1709.64 33.255 1710.3 38.3446 1710.58 44.4829C1703.7 43.2671 1698.46 41.4876 1694.42 38.8473C1692.01 37.2744 1690.03 35.3961 1688.39 33.1496M1680.75 6.81625L1690.12 18.6496M1696.25 12.7335C1694.43 11.6591 1692.39 10.6909 1690.12 9.79849C1687.36 8.71045 1684.25 7.73488 1680.75 6.81625C1681.24 11.2321 1681.82 15.1581 1682.57 18.6496C1683.13 21.2743 1683.79 23.6534 1684.57 25.8106C1685.6 28.6149 1686.85 31.044 1688.39 33.1496M1705.04 37.4829L1694.42 38.8473M1705.04 37.4829L1700.42 31.6496M1705.04 37.4829L1708.45 28.9829M1700.42 31.6496L1688.39 33.1496M1700.42 31.6496L1695.01 24.8162M1700.42 31.6496L1703.31 18.6496M1695.01 24.8162L1684.57 25.8106M1695.01 24.8162L1690.12 18.6496M1695.01 24.8162L1696.25 12.7335M1690.12 18.6496H1682.57M1690.12 18.6496V9.79849" stroke="#7F715A" stroke-width="1.3"/>
<path d="M1710.42 44.4833L1715.99 37.4833M1724.83 12.7339C1721.97 14.4089 1719.63 16.3422 1717.73 18.65C1715.4 21.4664 1713.73 24.8405 1712.57 28.9833C1711.36 33.2554 1710.7 38.345 1710.42 44.4833C1717.34 43.2675 1722.61 41.488 1726.67 38.8477M1740.42 6.81666L1730.99 18.65M1680.42 6.81666H1740.42C1739.92 11.2325 1739.34 15.1585 1738.59 18.65C1738.03 21.2747 1737.36 23.6538 1736.57 25.811C1735.54 28.6153 1734.29 31.0444 1732.74 33.15M1724.83 12.7339C1726.66 11.6595 1728.71 10.6914 1730.99 9.7989C1733.77 8.71086 1736.9 7.73529 1740.42 6.81666M1715.99 37.4833L1726.67 38.8477M1715.99 37.4833L1720.64 31.65M1715.99 37.4833L1712.57 28.9833M1726.67 38.8477C1729.09 37.2748 1731.08 35.3966 1732.74 33.15M1720.64 31.65L1732.74 33.15M1720.64 31.65L1726.08 24.8167M1720.64 31.65L1717.73 18.65M1726.08 24.8167L1736.57 25.811M1726.08 24.8167L1730.99 18.65M1726.08 24.8167L1724.83 12.7339M1730.99 18.65H1738.59M1730.99 18.65V9.7989M1680.42 0.649993H1740.42M1680.42 44.4833H1740.42M1740.42 50.8167H1680.42" stroke="#7F715A" stroke-width="1.3"/>
<path d="M1110.58 44.4829L1105.04 37.4829M1096.25 12.7335C1099.09 14.4085 1101.42 16.3418 1103.31 18.6496C1105.62 21.466 1107.29 24.8401 1108.45 28.9829C1109.64 33.255 1110.3 38.3446 1110.58 44.4829C1103.7 43.2671 1098.46 41.4876 1094.42 38.8473C1092.01 37.2744 1090.03 35.3961 1088.39 33.1496M1080.75 6.81625L1090.12 18.6496M1096.25 12.7335C1094.43 11.6591 1092.39 10.6909 1090.12 9.79849C1087.36 8.71045 1084.25 7.73488 1080.75 6.81625C1081.24 11.2321 1081.82 15.1581 1082.57 18.6496C1083.13 21.2743 1083.79 23.6534 1084.57 25.8106C1085.6 28.6149 1086.85 31.044 1088.39 33.1496M1105.04 37.4829L1094.42 38.8473M1105.04 37.4829L1100.42 31.6496M1105.04 37.4829L1108.45 28.9829M1100.42 31.6496L1088.39 33.1496M1100.42 31.6496L1095.01 24.8162M1100.42 31.6496L1103.31 18.6496M1095.01 24.8162L1084.57 25.8106M1095.01 24.8162L1090.12 18.6496M1095.01 24.8162L1096.25 12.7335M1090.12 18.6496H1082.57M1090.12 18.6496V9.79849" stroke="#7F715A" stroke-width="1.3"/>
<path d="M1110.42 44.4833L1115.99 37.4833M1124.83 12.7339C1121.97 14.4089 1119.63 16.3422 1117.73 18.65C1115.4 21.4664 1113.73 24.8405 1112.57 28.9833C1111.36 33.2554 1110.7 38.345 1110.42 44.4833C1117.34 43.2675 1122.61 41.488 1126.67 38.8477M1140.42 6.81666L1130.99 18.65M1080.42 6.81666H1140.42C1139.92 11.2325 1139.34 15.1585 1138.59 18.65C1138.02 21.2747 1137.36 23.6538 1136.57 25.811C1135.54 28.6153 1134.29 31.0444 1132.74 33.15M1124.83 12.7339C1126.66 11.6595 1128.71 10.6914 1130.99 9.7989C1133.77 8.71086 1136.9 7.73529 1140.42 6.81666M1115.99 37.4833L1126.67 38.8477M1115.99 37.4833L1120.64 31.65M1115.99 37.4833L1112.57 28.9833M1126.67 38.8477C1129.09 37.2748 1131.08 35.3966 1132.74 33.15M1120.64 31.65L1132.74 33.15M1120.64 31.65L1126.08 24.8167M1120.64 31.65L1117.73 18.65M1126.08 24.8167L1136.57 25.811M1126.08 24.8167L1130.99 18.65M1126.08 24.8167L1124.83 12.7339M1130.99 18.65H1138.59M1130.99 18.65V9.7989M1080.42 0.649993H1140.42M1080.42 44.4833H1140.42M1140.42 50.8167H1080.42" stroke="#7F715A" stroke-width="1.3"/>
<path d="M1350.58 44.4829L1345.04 37.4829M1336.25 12.7335C1339.09 14.4085 1341.42 16.3418 1343.31 18.6496C1345.62 21.466 1347.29 24.8401 1348.45 28.9829C1349.64 33.255 1350.3 38.3446 1350.58 44.4829C1343.7 43.2671 1338.46 41.4876 1334.42 38.8473C1332.01 37.2744 1330.03 35.3961 1328.39 33.1496M1320.75 6.81625L1330.12 18.6496M1336.25 12.7335C1334.43 11.6591 1332.39 10.6909 1330.12 9.79849C1327.36 8.71045 1324.25 7.73488 1320.75 6.81625C1321.24 11.2321 1321.82 15.1581 1322.57 18.6496C1323.13 21.2743 1323.79 23.6534 1324.57 25.8106C1325.6 28.6149 1326.85 31.044 1328.39 33.1496M1345.04 37.4829L1334.42 38.8473M1345.04 37.4829L1340.42 31.6496M1345.04 37.4829L1348.45 28.9829M1340.42 31.6496L1328.39 33.1496M1340.42 31.6496L1335.01 24.8162M1340.42 31.6496L1343.31 18.6496M1335.01 24.8162L1324.57 25.8106M1335.01 24.8162L1330.12 18.6496M1335.01 24.8162L1336.25 12.7335M1330.12 18.6496H1322.57M1330.12 18.6496V9.79849" stroke="#7F715A" stroke-width="1.3"/>
<path d="M1350.42 44.4833L1355.99 37.4833M1364.83 12.7339C1361.97 14.4089 1359.63 16.3422 1357.73 18.65C1355.4 21.4664 1353.73 24.8405 1352.57 28.9833C1351.36 33.2554 1350.7 38.345 1350.42 44.4833C1357.34 43.2675 1362.61 41.488 1366.67 38.8477M1380.42 6.81666L1370.99 18.65M1320.42 6.81666H1380.42C1379.92 11.2325 1379.34 15.1585 1378.59 18.65C1378.03 21.2747 1377.36 23.6538 1376.57 25.811C1375.54 28.6153 1374.29 31.0444 1372.74 33.15M1364.83 12.7339C1366.66 11.6595 1368.71 10.6914 1370.99 9.7989C1373.77 8.71086 1376.9 7.73529 1380.42 6.81666M1355.99 37.4833L1366.67 38.8477M1355.99 37.4833L1360.64 31.65M1355.99 37.4833L1352.57 28.9833M1366.67 38.8477C1369.09 37.2748 1371.08 35.3966 1372.74 33.15M1360.64 31.65L1372.74 33.15M1360.64 31.65L1366.08 24.8167M1360.64 31.65L1357.73 18.65M1366.08 24.8167L1376.57 25.811M1366.08 24.8167L1370.99 18.65M1366.08 24.8167L1364.83 12.7339M1370.99 18.65H1378.59M1370.99 18.65V9.7989M1320.42 0.649993H1380.42M1320.42 44.4833H1380.42M1380.42 50.8167H1320.42" stroke="#7F715A" stroke-width="1.3"/>
<path d="M1590.58 44.4829L1585.04 37.4829M1576.25 12.7335C1579.09 14.4085 1581.42 16.3418 1583.31 18.6496C1585.62 21.466 1587.29 24.8401 1588.45 28.9829C1589.64 33.255 1590.3 38.3446 1590.58 44.4829C1583.7 43.2671 1578.46 41.4876 1574.42 38.8473C1572.01 37.2744 1570.03 35.3961 1568.39 33.1496M1560.75 6.81625L1570.12 18.6496M1576.25 12.7335C1574.43 11.6591 1572.39 10.6909 1570.12 9.79849C1567.36 8.71045 1564.25 7.73488 1560.75 6.81625C1561.24 11.2321 1561.82 15.1581 1562.57 18.6496C1563.13 21.2743 1563.79 23.6534 1564.57 25.8106C1565.6 28.6149 1566.85 31.044 1568.39 33.1496M1585.04 37.4829L1574.42 38.8473M1585.04 37.4829L1580.42 31.6496M1585.04 37.4829L1588.45 28.9829M1580.42 31.6496L1568.39 33.1496M1580.42 31.6496L1575.01 24.8162M1580.42 31.6496L1583.31 18.6496M1575.01 24.8162L1564.57 25.8106M1575.01 24.8162L1570.12 18.6496M1575.01 24.8162L1576.25 12.7335M1570.12 18.6496H1562.57M1570.12 18.6496V9.79849" stroke="#7F715A" stroke-width="1.3"/>
<path d="M1590.42 44.4833L1595.99 37.4833M1604.83 12.7339C1601.97 14.4089 1599.63 16.3422 1597.73 18.65C1595.4 21.4664 1593.73 24.8405 1592.57 28.9833C1591.36 33.2554 1590.7 38.345 1590.42 44.4833C1597.34 43.2675 1602.61 41.488 1606.67 38.8477M1620.42 6.81666L1610.99 18.65M1560.42 6.81666H1620.42C1619.92 11.2325 1619.34 15.1585 1618.59 18.65C1618.02 21.2747 1617.36 23.6538 1616.57 25.811C1615.54 28.6153 1614.29 31.0444 1612.74 33.15M1604.83 12.7339C1606.66 11.6595 1608.71 10.6914 1610.99 9.7989C1613.77 8.71086 1616.9 7.73529 1620.42 6.81666M1595.99 37.4833L1606.67 38.8477M1595.99 37.4833L1600.64 31.65M1595.99 37.4833L1592.57 28.9833M1606.67 38.8477C1609.09 37.2748 1611.08 35.3966 1612.74 33.15M1600.64 31.65L1612.74 33.15M1600.64 31.65L1606.08 24.8167M1600.64 31.65L1597.73 18.65M1606.08 24.8167L1616.57 25.811M1606.08 24.8167L1610.99 18.65M1606.08 24.8167L1604.83 12.7339M1610.99 18.65H1618.59M1610.99 18.65V9.7989M1560.42 0.649993H1620.42M1560.42 44.4833H1620.42M1620.42 50.8167H1560.42" stroke="#7F715A" stroke-width="1.3"/>
<path d="M1830.58 44.4829L1825.04 37.4829M1816.25 12.7335C1819.09 14.4085 1821.42 16.3418 1823.31 18.6496C1825.62 21.466 1827.29 24.8401 1828.45 28.9829C1829.64 33.255 1830.3 38.3446 1830.58 44.4829C1823.7 43.2671 1818.46 41.4876 1814.42 38.8473C1812.01 37.2744 1810.03 35.3961 1808.39 33.1496M1800.75 6.81625L1810.12 18.6496M1816.25 12.7335C1814.43 11.6591 1812.39 10.6909 1810.12 9.79849C1807.36 8.71045 1804.25 7.73488 1800.75 6.81625C1801.24 11.2321 1801.82 15.1581 1802.57 18.6496C1803.13 21.2743 1803.79 23.6534 1804.57 25.8106C1805.6 28.6149 1806.85 31.044 1808.39 33.1496M1825.04 37.4829L1814.42 38.8473M1825.04 37.4829L1820.42 31.6496M1825.04 37.4829L1828.45 28.9829M1820.42 31.6496L1808.39 33.1496M1820.42 31.6496L1815.01 24.8162M1820.42 31.6496L1823.31 18.6496M1815.01 24.8162L1804.57 25.8106M1815.01 24.8162L1810.12 18.6496M1815.01 24.8162L1816.25 12.7335M1810.12 18.6496H1802.57M1810.12 18.6496V9.79849" stroke="#7F715A" stroke-width="1.3"/>
<path d="M1830.42 44.4833L1835.99 37.4833M1844.83 12.7339C1841.97 14.4089 1839.63 16.3422 1837.73 18.65C1835.4 21.4664 1833.73 24.8405 1832.57 28.9833C1831.36 33.2554 1830.7 38.345 1830.42 44.4833C1837.34 43.2675 1842.61 41.488 1846.67 38.8477M1860.42 6.81666L1850.99 18.65M1800.42 6.81666H1860.42C1859.92 11.2325 1859.34 15.1585 1858.59 18.65C1858.02 21.2747 1857.36 23.6538 1856.57 25.811C1855.54 28.6153 1854.29 31.0444 1852.74 33.15M1844.83 12.7339C1846.66 11.6595 1848.71 10.6914 1850.99 9.7989C1853.77 8.71086 1856.9 7.73529 1860.42 6.81666M1835.99 37.4833L1846.67 38.8477M1835.99 37.4833L1840.64 31.65M1835.99 37.4833L1832.57 28.9833M1846.67 38.8477C1849.09 37.2748 1851.08 35.3966 1852.74 33.15M1840.64 31.65L1852.74 33.15M1840.64 31.65L1846.08 24.8167M1840.64 31.65L1837.73 18.65M1846.08 24.8167L1856.57 25.811M1846.08 24.8167L1850.99 18.65M1846.08 24.8167L1844.83 12.7339M1850.99 18.65H1858.59M1850.99 18.65V9.7989M1800.42 0.649993H1860.42M1800.42 44.4833H1860.42M1860.42 50.8167H1800.42" stroke="#7F715A" stroke-width="1.3"/>
<path d="M1050.58 44.4829L1045.04 37.4829M1036.25 12.7335C1039.09 14.4085 1041.42 16.3418 1043.31 18.6496C1045.62 21.466 1047.29 24.8401 1048.45 28.9829C1049.64 33.255 1050.3 38.3446 1050.58 44.4829C1043.7 43.2671 1038.46 41.4876 1034.42 38.8473C1032.01 37.2744 1030.03 35.3961 1028.39 33.1496M1020.75 6.81625L1030.12 18.6496M1036.25 12.7335C1034.43 11.6591 1032.39 10.6909 1030.12 9.79849C1027.36 8.71045 1024.25 7.73488 1020.75 6.81625C1021.24 11.2321 1021.82 15.1581 1022.57 18.6496C1023.13 21.2743 1023.79 23.6534 1024.57 25.8106C1025.6 28.6149 1026.85 31.044 1028.39 33.1496M1045.04 37.4829L1034.42 38.8473M1045.04 37.4829L1040.42 31.6496M1045.04 37.4829L1048.45 28.9829M1040.42 31.6496L1028.39 33.1496M1040.42 31.6496L1035.01 24.8162M1040.42 31.6496L1043.31 18.6496M1035.01 24.8162L1024.57 25.8106M1035.01 24.8162L1030.12 18.6496M1035.01 24.8162L1036.25 12.7335M1030.12 18.6496H1022.57M1030.12 18.6496V9.79849" stroke="#7F715A" stroke-width="1.3"/>
<path d="M1050.42 44.4833L1055.99 37.4833M1064.83 12.7339C1061.97 14.4089 1059.63 16.3422 1057.73 18.65C1055.4 21.4664 1053.73 24.8405 1052.57 28.9833C1051.36 33.2554 1050.7 38.345 1050.42 44.4833C1057.34 43.2675 1062.61 41.488 1066.67 38.8477M1080.42 6.81666L1070.99 18.65M1020.42 6.81666H1080.42C1079.92 11.2325 1079.34 15.1585 1078.59 18.65C1078.03 21.2747 1077.36 23.6538 1076.57 25.811C1075.54 28.6153 1074.29 31.0444 1072.74 33.15M1064.83 12.7339C1066.66 11.6595 1068.71 10.6914 1070.99 9.7989C1073.77 8.71086 1076.9 7.73529 1080.42 6.81666M1055.99 37.4833L1066.67 38.8477M1055.99 37.4833L1060.64 31.65M1055.99 37.4833L1052.57 28.9833M1066.67 38.8477C1069.09 37.2748 1071.08 35.3966 1072.74 33.15M1060.64 31.65L1072.74 33.15M1060.64 31.65L1066.08 24.8167M1060.64 31.65L1057.73 18.65M1066.08 24.8167L1076.57 25.811M1066.08 24.8167L1070.99 18.65M1066.08 24.8167L1064.83 12.7339M1070.99 18.65H1078.59M1070.99 18.65V9.7989M1020.42 0.649993H1080.42M1020.42 44.4833H1080.42M1080.42 50.8167H1020.42" stroke="#7F715A" stroke-width="1.3"/>
<path d="M1290.58 44.4829L1285.04 37.4829M1276.25 12.7335C1279.09 14.4085 1281.42 16.3418 1283.31 18.6496C1285.62 21.466 1287.29 24.8401 1288.45 28.9829C1289.64 33.255 1290.3 38.3446 1290.58 44.4829C1283.7 43.2671 1278.46 41.4876 1274.42 38.8473C1272.01 37.2744 1270.03 35.3961 1268.39 33.1496M1260.75 6.81625L1270.12 18.6496M1276.25 12.7335C1274.43 11.6591 1272.39 10.6909 1270.12 9.79849C1267.36 8.71045 1264.25 7.73488 1260.75 6.81625C1261.24 11.2321 1261.82 15.1581 1262.57 18.6496C1263.13 21.2743 1263.79 23.6534 1264.57 25.8106C1265.6 28.6149 1266.85 31.044 1268.39 33.1496M1285.04 37.4829L1274.42 38.8473M1285.04 37.4829L1280.42 31.6496M1285.04 37.4829L1288.45 28.9829M1280.42 31.6496L1268.39 33.1496M1280.42 31.6496L1275.01 24.8162M1280.42 31.6496L1283.31 18.6496M1275.01 24.8162L1264.57 25.8106M1275.01 24.8162L1270.12 18.6496M1275.01 24.8162L1276.25 12.7335M1270.12 18.6496H1262.57M1270.12 18.6496V9.79849" stroke="#7F715A" stroke-width="1.3"/>
<path d="M1290.42 44.4833L1295.99 37.4833M1304.83 12.7339C1301.97 14.4089 1299.63 16.3422 1297.73 18.65C1295.4 21.4664 1293.73 24.8405 1292.57 28.9833C1291.36 33.2554 1290.7 38.345 1290.42 44.4833C1297.34 43.2675 1302.61 41.488 1306.67 38.8477M1320.42 6.81666L1310.99 18.65M1260.42 6.81666H1320.42C1319.92 11.2325 1319.34 15.1585 1318.59 18.65C1318.02 21.2747 1317.36 23.6538 1316.57 25.811C1315.54 28.6153 1314.29 31.0444 1312.74 33.15M1304.83 12.7339C1306.66 11.6595 1308.71 10.6914 1310.99 9.7989C1313.77 8.71086 1316.9 7.73529 1320.42 6.81666M1295.99 37.4833L1306.67 38.8477M1295.99 37.4833L1300.64 31.65M1295.99 37.4833L1292.57 28.9833M1306.67 38.8477C1309.09 37.2748 1311.08 35.3966 1312.74 33.15M1300.64 31.65L1312.74 33.15M1300.64 31.65L1306.08 24.8167M1300.64 31.65L1297.73 18.65M1306.08 24.8167L1316.57 25.811M1306.08 24.8167L1310.99 18.65M1306.08 24.8167L1304.83 12.7339M1310.99 18.65H1318.59M1310.99 18.65V9.7989M1260.42 0.649993H1320.42M1260.42 44.4833H1320.42M1320.42 50.8167H1260.42" stroke="#7F715A" stroke-width="1.3"/>
<path d="M1530.58 44.4829L1525.04 37.4829M1516.25 12.7335C1519.09 14.4085 1521.42 16.3418 1523.31 18.6496C1525.62 21.466 1527.29 24.8401 1528.45 28.9829C1529.64 33.255 1530.3 38.3446 1530.58 44.4829C1523.7 43.2671 1518.46 41.4876 1514.42 38.8473C1512.01 37.2744 1510.03 35.3961 1508.39 33.1496M1500.75 6.81625L1510.12 18.6496M1516.25 12.7335C1514.43 11.6591 1512.39 10.6909 1510.12 9.79849C1507.36 8.71045 1504.25 7.73488 1500.75 6.81625C1501.24 11.2321 1501.82 15.1581 1502.57 18.6496C1503.13 21.2743 1503.79 23.6534 1504.57 25.8106C1505.6 28.6149 1506.85 31.044 1508.39 33.1496M1525.04 37.4829L1514.42 38.8473M1525.04 37.4829L1520.42 31.6496M1525.04 37.4829L1528.45 28.9829M1520.42 31.6496L1508.39 33.1496M1520.42 31.6496L1515.01 24.8162M1520.42 31.6496L1523.31 18.6496M1515.01 24.8162L1504.57 25.8106M1515.01 24.8162L1510.12 18.6496M1515.01 24.8162L1516.25 12.7335M1510.12 18.6496H1502.57M1510.12 18.6496V9.79849" stroke="#7F715A" stroke-width="1.3"/>
<path d="M1530.42 44.4833L1535.99 37.4833M1544.83 12.7339C1541.97 14.4089 1539.63 16.3422 1537.73 18.65C1535.4 21.4664 1533.73 24.8405 1532.57 28.9833C1531.36 33.2554 1530.7 38.345 1530.42 44.4833C1537.34 43.2675 1542.61 41.488 1546.67 38.8477M1560.42 6.81666L1550.99 18.65M1500.42 6.81666H1560.42C1559.92 11.2325 1559.34 15.1585 1558.59 18.65C1558.02 21.2747 1557.36 23.6538 1556.57 25.811C1555.54 28.6153 1554.29 31.0444 1552.74 33.15M1544.83 12.7339C1546.66 11.6595 1548.71 10.6914 1550.99 9.7989C1553.77 8.71086 1556.9 7.73529 1560.42 6.81666M1535.99 37.4833L1546.67 38.8477M1535.99 37.4833L1540.64 31.65M1535.99 37.4833L1532.57 28.9833M1546.67 38.8477C1549.09 37.2748 1551.08 35.3966 1552.74 33.15M1540.64 31.65L1552.74 33.15M1540.64 31.65L1546.08 24.8167M1540.64 31.65L1537.73 18.65M1546.08 24.8167L1556.57 25.811M1546.08 24.8167L1550.99 18.65M1546.08 24.8167L1544.83 12.7339M1550.99 18.65H1558.59M1550.99 18.65V9.7989M1500.42 0.649993H1560.42M1500.42 44.4833H1560.42M1560.42 50.8167H1500.42" stroke="#7F715A" stroke-width="1.3"/>
<path d="M1770.58 44.4829L1765.04 37.4829M1756.25 12.7335C1759.09 14.4085 1761.42 16.3418 1763.31 18.6496C1765.62 21.466 1767.29 24.8401 1768.45 28.9829C1769.64 33.255 1770.3 38.3446 1770.58 44.4829C1763.7 43.2671 1758.46 41.4876 1754.42 38.8473C1752.01 37.2744 1750.03 35.3961 1748.39 33.1496M1740.75 6.81625L1750.12 18.6496M1756.25 12.7335C1754.43 11.6591 1752.39 10.6909 1750.12 9.79849C1747.36 8.71045 1744.25 7.73488 1740.75 6.81625C1741.24 11.2321 1741.82 15.1581 1742.57 18.6496C1743.13 21.2743 1743.79 23.6534 1744.57 25.8106C1745.6 28.6149 1746.85 31.044 1748.39 33.1496M1765.04 37.4829L1754.42 38.8473M1765.04 37.4829L1760.42 31.6496M1765.04 37.4829L1768.45 28.9829M1760.42 31.6496L1748.39 33.1496M1760.42 31.6496L1755.01 24.8162M1760.42 31.6496L1763.31 18.6496M1755.01 24.8162L1744.57 25.8106M1755.01 24.8162L1750.12 18.6496M1755.01 24.8162L1756.25 12.7335M1750.12 18.6496H1742.57M1750.12 18.6496V9.79849" stroke="#7F715A" stroke-width="1.3"/>
<path d="M1770.42 44.4833L1775.99 37.4833M1784.83 12.7339C1781.97 14.4089 1779.63 16.3422 1777.73 18.65C1775.4 21.4664 1773.73 24.8405 1772.57 28.9833C1771.36 33.2554 1770.7 38.345 1770.42 44.4833C1777.34 43.2675 1782.61 41.488 1786.67 38.8477M1800.42 6.81666L1790.99 18.65M1740.42 6.81666H1800.42C1799.92 11.2325 1799.34 15.1585 1798.59 18.65C1798.02 21.2747 1797.36 23.6538 1796.57 25.811C1795.54 28.6153 1794.29 31.0444 1792.74 33.15M1784.83 12.7339C1786.66 11.6595 1788.71 10.6914 1790.99 9.7989C1793.77 8.71086 1796.9 7.73529 1800.42 6.81666M1775.99 37.4833L1786.67 38.8477M1775.99 37.4833L1780.64 31.65M1775.99 37.4833L1772.57 28.9833M1786.67 38.8477C1789.09 37.2748 1791.08 35.3966 1792.74 33.15M1780.64 31.65L1792.74 33.15M1780.64 31.65L1786.08 24.8167M1780.64 31.65L1777.73 18.65M1786.08 24.8167L1796.57 25.811M1786.08 24.8167L1790.99 18.65M1786.08 24.8167L1784.83 12.7339M1790.99 18.65H1798.59M1790.99 18.65V9.7989M1740.42 0.649993H1800.42M1740.42 44.4833H1800.42M1800.42 50.8167H1740.42" stroke="#7F715A" stroke-width="1.3"/>
<path d="M1170.58 44.4829L1165.04 37.4829M1156.25 12.7335C1159.09 14.4085 1161.42 16.3418 1163.31 18.6496C1165.62 21.466 1167.29 24.8401 1168.45 28.9829C1169.64 33.255 1170.3 38.3446 1170.58 44.4829C1163.7 43.2671 1158.46 41.4876 1154.42 38.8473C1152.01 37.2744 1150.03 35.3961 1148.39 33.1496M1140.75 6.81625L1150.12 18.6496M1156.25 12.7335C1154.43 11.6591 1152.39 10.6909 1150.12 9.79849C1147.36 8.71045 1144.25 7.73488 1140.75 6.81625C1141.24 11.2321 1141.82 15.1581 1142.57 18.6496C1143.13 21.2743 1143.79 23.6534 1144.57 25.8106C1145.6 28.6149 1146.85 31.044 1148.39 33.1496M1165.04 37.4829L1154.42 38.8473M1165.04 37.4829L1160.42 31.6496M1165.04 37.4829L1168.45 28.9829M1160.42 31.6496L1148.39 33.1496M1160.42 31.6496L1155.01 24.8162M1160.42 31.6496L1163.31 18.6496M1155.01 24.8162L1144.57 25.8106M1155.01 24.8162L1150.12 18.6496M1155.01 24.8162L1156.25 12.7335M1150.12 18.6496H1142.57M1150.12 18.6496V9.79849" stroke="#7F715A" stroke-width="1.3"/>
<path d="M1170.42 44.4833L1175.99 37.4833M1184.83 12.7339C1181.97 14.4089 1179.63 16.3422 1177.73 18.65C1175.4 21.4664 1173.73 24.8405 1172.57 28.9833C1171.36 33.2554 1170.7 38.345 1170.42 44.4833C1177.34 43.2675 1182.61 41.488 1186.67 38.8477M1200.42 6.81666L1190.99 18.65M1140.42 6.81666H1200.42C1199.92 11.2325 1199.34 15.1585 1198.59 18.65C1198.02 21.2747 1197.36 23.6538 1196.57 25.811C1195.54 28.6153 1194.29 31.0444 1192.74 33.15M1184.83 12.7339C1186.66 11.6595 1188.71 10.6914 1190.99 9.7989C1193.77 8.71086 1196.9 7.73529 1200.42 6.81666M1175.99 37.4833L1186.67 38.8477M1175.99 37.4833L1180.64 31.65M1175.99 37.4833L1172.57 28.9833M1186.67 38.8477C1189.09 37.2748 1191.08 35.3966 1192.74 33.15M1180.64 31.65L1192.74 33.15M1180.64 31.65L1186.08 24.8167M1180.64 31.65L1177.73 18.65M1186.08 24.8167L1196.57 25.811M1186.08 24.8167L1190.99 18.65M1186.08 24.8167L1184.83 12.7339M1190.99 18.65H1198.59M1190.99 18.65V9.7989M1140.42 0.649993H1200.42M1140.42 44.4833H1200.42M1200.42 50.8167H1140.42" stroke="#7F715A" stroke-width="1.3"/>
<path d="M1410.58 44.4829L1405.04 37.4829M1396.25 12.7335C1399.09 14.4085 1401.42 16.3418 1403.31 18.6496C1405.62 21.466 1407.29 24.8401 1408.45 28.9829C1409.64 33.255 1410.3 38.3446 1410.58 44.4829C1403.7 43.2671 1398.46 41.4876 1394.42 38.8473C1392.01 37.2744 1390.03 35.3961 1388.39 33.1496M1380.75 6.81625L1390.12 18.6496M1396.25 12.7335C1394.43 11.6591 1392.39 10.6909 1390.12 9.79849C1387.36 8.71045 1384.25 7.73488 1380.75 6.81625C1381.24 11.2321 1381.82 15.1581 1382.57 18.6496C1383.13 21.2743 1383.79 23.6534 1384.57 25.8106C1385.6 28.6149 1386.85 31.044 1388.39 33.1496M1405.04 37.4829L1394.42 38.8473M1405.04 37.4829L1400.42 31.6496M1405.04 37.4829L1408.45 28.9829M1400.42 31.6496L1388.39 33.1496M1400.42 31.6496L1395.01 24.8162M1400.42 31.6496L1403.31 18.6496M1395.01 24.8162L1384.57 25.8106M1395.01 24.8162L1390.12 18.6496M1395.01 24.8162L1396.25 12.7335M1390.12 18.6496H1382.57M1390.12 18.6496V9.79849" stroke="#7F715A" stroke-width="1.3"/>
<path d="M1410.42 44.4833L1415.99 37.4833M1424.83 12.7339C1421.97 14.4089 1419.63 16.3422 1417.73 18.65C1415.4 21.4664 1413.73 24.8405 1412.57 28.9833C1411.36 33.2554 1410.7 38.345 1410.42 44.4833C1417.34 43.2675 1422.61 41.488 1426.67 38.8477M1440.42 6.81666L1430.99 18.65M1380.42 6.81666H1440.42C1439.92 11.2325 1439.34 15.1585 1438.59 18.65C1438.03 21.2747 1437.36 23.6538 1436.57 25.811C1435.54 28.6153 1434.29 31.0444 1432.74 33.15M1424.83 12.7339C1426.66 11.6595 1428.71 10.6914 1430.99 9.7989C1433.77 8.71086 1436.9 7.73529 1440.42 6.81666M1415.99 37.4833L1426.67 38.8477M1415.99 37.4833L1420.64 31.65M1415.99 37.4833L1412.57 28.9833M1426.67 38.8477C1429.09 37.2748 1431.08 35.3966 1432.74 33.15M1420.64 31.65L1432.74 33.15M1420.64 31.65L1426.08 24.8167M1420.64 31.65L1417.73 18.65M1426.08 24.8167L1436.57 25.811M1426.08 24.8167L1430.99 18.65M1426.08 24.8167L1424.83 12.7339M1430.99 18.65H1438.59M1430.99 18.65V9.7989M1380.42 0.649993H1440.42M1380.42 44.4833H1440.42M1440.42 50.8167H1380.42" stroke="#7F715A" stroke-width="1.3"/>
<path d="M1650.58 44.4829L1645.04 37.4829M1636.25 12.7335C1639.09 14.4085 1641.42 16.3418 1643.31 18.6496C1645.62 21.466 1647.29 24.8401 1648.45 28.9829C1649.64 33.255 1650.3 38.3446 1650.58 44.4829C1643.7 43.2671 1638.46 41.4876 1634.42 38.8473C1632.01 37.2744 1630.03 35.3961 1628.39 33.1496M1620.75 6.81625L1630.12 18.6496M1636.25 12.7335C1634.43 11.6591 1632.39 10.6909 1630.12 9.79849C1627.36 8.71045 1624.25 7.73488 1620.75 6.81625C1621.24 11.2321 1621.82 15.1581 1622.57 18.6496C1623.13 21.2743 1623.79 23.6534 1624.57 25.8106C1625.6 28.6149 1626.85 31.044 1628.39 33.1496M1645.04 37.4829L1634.42 38.8473M1645.04 37.4829L1640.42 31.6496M1645.04 37.4829L1648.45 28.9829M1640.42 31.6496L1628.39 33.1496M1640.42 31.6496L1635.01 24.8162M1640.42 31.6496L1643.31 18.6496M1635.01 24.8162L1624.57 25.8106M1635.01 24.8162L1630.12 18.6496M1635.01 24.8162L1636.25 12.7335M1630.12 18.6496H1622.57M1630.12 18.6496V9.79849" stroke="#7F715A" stroke-width="1.3"/>
<path d="M1650.42 44.4833L1655.99 37.4833M1664.83 12.7339C1661.97 14.4089 1659.63 16.3422 1657.73 18.65C1655.4 21.4664 1653.73 24.8405 1652.57 28.9833C1651.36 33.2554 1650.7 38.345 1650.42 44.4833C1657.34 43.2675 1662.61 41.488 1666.67 38.8477M1680.42 6.81666L1670.99 18.65M1620.42 6.81666H1680.42C1679.92 11.2325 1679.34 15.1585 1678.59 18.65C1678.03 21.2747 1677.36 23.6538 1676.57 25.811C1675.54 28.6153 1674.29 31.0444 1672.74 33.15M1664.83 12.7339C1666.66 11.6595 1668.71 10.6914 1670.99 9.7989C1673.77 8.71086 1676.9 7.73529 1680.42 6.81666M1655.99 37.4833L1666.67 38.8477M1655.99 37.4833L1660.64 31.65M1655.99 37.4833L1652.57 28.9833M1666.67 38.8477C1669.09 37.2748 1671.08 35.3966 1672.74 33.15M1660.64 31.65L1672.74 33.15M1660.64 31.65L1666.08 24.8167M1660.64 31.65L1657.73 18.65M1666.08 24.8167L1676.57 25.811M1666.08 24.8167L1670.99 18.65M1666.08 24.8167L1664.83 12.7339M1670.99 18.65H1678.59M1670.99 18.65V9.7989M1620.42 0.649993H1680.42M1620.42 44.4833H1680.42M1680.42 50.8167H1620.42" stroke="#7F715A" stroke-width="1.3"/>
<path d="M1890.58 44.4829L1885.04 37.4829M1876.25 12.7335C1879.09 14.4085 1881.42 16.3418 1883.31 18.6496C1885.62 21.466 1887.29 24.8401 1888.45 28.9829C1889.64 33.255 1890.3 38.3446 1890.58 44.4829C1883.7 43.2671 1878.46 41.4876 1874.42 38.8473C1872.01 37.2744 1870.03 35.3961 1868.39 33.1496M1860.75 6.81625L1870.12 18.6496M1876.25 12.7335C1874.43 11.6591 1872.39 10.6909 1870.12 9.79849C1867.36 8.71045 1864.25 7.73488 1860.75 6.81625C1861.24 11.2321 1861.82 15.1581 1862.57 18.6496C1863.13 21.2743 1863.79 23.6534 1864.57 25.8106C1865.6 28.6149 1866.85 31.044 1868.39 33.1496M1885.04 37.4829L1874.42 38.8473M1885.04 37.4829L1880.42 31.6496M1885.04 37.4829L1888.45 28.9829M1880.42 31.6496L1868.39 33.1496M1880.42 31.6496L1875.01 24.8162M1880.42 31.6496L1883.31 18.6496M1875.01 24.8162L1864.57 25.8106M1875.01 24.8162L1870.12 18.6496M1875.01 24.8162L1876.25 12.7335M1870.12 18.6496H1862.57M1870.12 18.6496V9.79849" stroke="#7F715A" stroke-width="1.3"/>
<path d="M1890.42 44.4833L1895.99 37.4833M1904.83 12.7339C1901.97 14.4089 1899.63 16.3422 1897.73 18.65C1895.4 21.4664 1893.73 24.8405 1892.57 28.9833C1891.36 33.2554 1890.7 38.345 1890.42 44.4833C1897.34 43.2675 1902.61 41.488 1906.67 38.8477M1920.42 6.81666L1910.99 18.65M1860.42 6.81666H1920.42C1919.92 11.2325 1919.34 15.1585 1918.59 18.65C1918.03 21.2747 1917.36 23.6538 1916.57 25.811C1915.54 28.6153 1914.29 31.0444 1912.74 33.15M1904.83 12.7339C1906.66 11.6595 1908.71 10.6914 1910.99 9.7989C1913.77 8.71086 1916.9 7.73529 1920.42 6.81666M1895.99 37.4833L1906.67 38.8477M1895.99 37.4833L1900.64 31.65M1895.99 37.4833L1892.57 28.9833M1906.67 38.8477C1909.09 37.2748 1911.08 35.3966 1912.74 33.15M1900.64 31.65L1912.74 33.15M1900.64 31.65L1906.08 24.8167M1900.64 31.65L1897.73 18.65M1906.08 24.8167L1916.57 25.811M1906.08 24.8167L1910.99 18.65M1906.08 24.8167L1904.83 12.7339M1910.99 18.65H1918.59M1910.99 18.65V9.7989M1860.42 0.649993H1920.42M1860.42 44.4833H1920.42M1920.42 50.8167H1860.42" stroke="#7F715A" stroke-width="1.3"/>
</svg>
