<svg width="962" height="52" viewBox="0 0 962 52" fill="none" xmlns="http://www.w3.org/2000/svg">
<path d="M30.5836 44.4829L25.0393 37.4829M16.2502 12.7335C19.0934 14.4085 21.4217 16.3418 23.3149 18.6496C25.6254 21.466 27.2877 24.8401 28.4464 28.9829C29.6414 33.255 30.3009 38.3446 30.5836 44.4829C23.7026 43.2671 18.4576 41.4876 14.4169 38.8473C12.0099 37.2744 10.0302 35.3961 8.38651 33.1496M0.750244 6.81625L10.1227 18.6496M16.2502 12.7335C14.4265 11.6591 12.391 10.6909 10.1227 9.79849C7.35723 8.71045 4.24578 7.73488 0.750244 6.81625C1.23925 11.2321 1.8176 15.1581 2.56581 18.6496C3.12828 21.2743 3.78674 23.6534 4.5754 25.8106C5.60067 28.6149 6.84599 31.044 8.38651 33.1496M25.0393 37.4829L14.4169 38.8473M25.0393 37.4829L20.4191 31.6496M25.0393 37.4829L28.4464 28.9829M20.4191 31.6496L8.38651 33.1496M20.4191 31.6496L15.0069 24.8162M20.4191 31.6496L23.3149 18.6496M15.0069 24.8162L4.5754 25.8106M15.0069 24.8162L10.1227 18.6496M15.0069 24.8162L16.2502 12.7335M10.1227 18.6496H2.56581M10.1227 18.6496V9.79849" stroke="#7F715A" stroke-width="1.3"/>
<path d="M30.4165 44.4833L35.9917 37.4833M44.8299 12.7339C41.9709 14.4089 39.6295 16.3422 37.7258 18.65C35.4024 21.4664 33.7308 24.8405 32.5656 28.9833C31.364 33.2554 30.7008 38.345 30.4165 44.4833C37.336 43.2675 42.6102 41.488 46.6735 38.8477M60.4165 6.81666L50.9917 18.65M0.41652 6.81666H60.4165C59.9248 11.2325 59.3432 15.1585 58.5908 18.65C58.0252 21.2747 57.363 23.6538 56.57 25.811C55.539 28.6153 54.2867 31.0444 52.7376 33.15M44.8299 12.7339C46.6638 11.6595 48.7107 10.6914 50.9917 9.7989C53.7726 8.71086 56.9014 7.73529 60.4165 6.81666M35.9917 37.4833L46.6735 38.8477M35.9917 37.4833L40.6377 31.65M35.9917 37.4833L32.5656 28.9833M46.6735 38.8477C49.094 37.2748 51.0847 35.3966 52.7376 33.15M40.6377 31.65L52.7376 33.15M40.6377 31.65L46.0802 24.8167M40.6377 31.65L37.7258 18.65M46.0802 24.8167L56.57 25.811M46.0802 24.8167L50.9917 18.65M46.0802 24.8167L44.8299 12.7339M50.9917 18.65H58.5908M50.9917 18.65V9.7989M0.41652 0.649993H60.4165M0.41652 44.4833H60.4165M60.4165 50.8167H0.41652" stroke="#7F715A" stroke-width="1.3"/>
<path d="M270.583 44.4829L265.039 37.4829M256.25 12.7335C259.093 14.4085 261.421 16.3418 263.314 18.6496C265.625 21.466 267.287 24.8401 268.446 28.9829C269.641 33.255 270.3 38.3446 270.583 44.4829C263.702 43.2671 258.457 41.4876 254.416 38.8473C252.009 37.2744 250.03 35.3961 248.386 33.1496M240.75 6.81625L250.122 18.6496M256.25 12.7335C254.426 11.6591 252.391 10.6909 250.122 9.79849C247.357 8.71045 244.245 7.73488 240.75 6.81625C241.239 11.2321 241.817 15.1581 242.565 18.6496C243.128 21.2743 243.786 23.6534 244.575 25.8106C245.6 28.6149 246.846 31.044 248.386 33.1496M265.039 37.4829L254.416 38.8473M265.039 37.4829L260.419 31.6496M265.039 37.4829L268.446 28.9829M260.419 31.6496L248.386 33.1496M260.419 31.6496L255.006 24.8162M260.419 31.6496L263.314 18.6496M255.006 24.8162L244.575 25.8106M255.006 24.8162L250.122 18.6496M255.006 24.8162L256.25 12.7335M250.122 18.6496H242.565M250.122 18.6496V9.79849" stroke="#7F715A" stroke-width="1.3"/>
<path d="M270.416 44.4833L275.991 37.4833M284.829 12.7339C281.97 14.4089 279.629 16.3422 277.725 18.65C275.402 21.4664 273.73 24.8405 272.565 28.9833C271.363 33.2554 270.7 38.345 270.416 44.4833C277.335 43.2675 282.61 41.488 286.673 38.8477M300.416 6.81666L290.991 18.65M240.416 6.81666H300.416C299.924 11.2325 299.343 15.1585 298.59 18.65C298.025 21.2747 297.363 23.6538 296.569 25.811C295.538 28.6153 294.286 31.0444 292.737 33.15M284.829 12.7339C286.663 11.6595 288.71 10.6914 290.991 9.7989C293.772 8.71086 296.901 7.73529 300.416 6.81666M275.991 37.4833L286.673 38.8477M275.991 37.4833L280.637 31.65M275.991 37.4833L272.565 28.9833M286.673 38.8477C289.093 37.2748 291.084 35.3966 292.737 33.15M280.637 31.65L292.737 33.15M280.637 31.65L286.08 24.8167M280.637 31.65L277.725 18.65M286.08 24.8167L296.569 25.811M286.08 24.8167L290.991 18.65M286.08 24.8167L284.829 12.7339M290.991 18.65H298.59M290.991 18.65V9.7989M240.416 0.649993H300.416M240.416 44.4833H300.416M300.416 50.8167H240.416" stroke="#7F715A" stroke-width="1.3"/>
<path d="M510.583 44.4829L505.039 37.4829M496.25 12.7335C499.093 14.4085 501.421 16.3418 503.314 18.6496C505.625 21.466 507.287 24.8401 508.446 28.9829C509.641 33.255 510.3 38.3446 510.583 44.4829C503.702 43.2671 498.457 41.4876 494.416 38.8473C492.009 37.2744 490.03 35.3961 488.386 33.1496M480.75 6.81625L490.122 18.6496M496.25 12.7335C494.426 11.6591 492.391 10.6909 490.122 9.79849C487.357 8.71045 484.245 7.73488 480.75 6.81625C481.239 11.2321 481.817 15.1581 482.565 18.6496C483.128 21.2743 483.786 23.6534 484.575 25.8106C485.6 28.6149 486.846 31.044 488.386 33.1496M505.039 37.4829L494.416 38.8473M505.039 37.4829L500.419 31.6496M505.039 37.4829L508.446 28.9829M500.419 31.6496L488.386 33.1496M500.419 31.6496L495.006 24.8162M500.419 31.6496L503.314 18.6496M495.006 24.8162L484.575 25.8106M495.006 24.8162L490.122 18.6496M495.006 24.8162L496.25 12.7335M490.122 18.6496H482.565M490.122 18.6496V9.79849" stroke="#7F715A" stroke-width="1.3"/>
<path d="M510.417 44.4833L515.992 37.4833M524.83 12.7339C521.971 14.4089 519.63 16.3422 517.726 18.65C515.402 21.4664 513.731 24.8405 512.566 28.9833C511.364 33.2554 510.701 38.345 510.417 44.4833C517.336 43.2675 522.61 41.488 526.673 38.8477M540.417 6.81666L530.992 18.65M480.417 6.81666H540.417C539.925 11.2325 539.343 15.1585 538.591 18.65C538.025 21.2747 537.363 23.6538 536.57 25.811C535.539 28.6153 534.287 31.0444 532.738 33.15M524.83 12.7339C526.664 11.6595 528.711 10.6914 530.992 9.7989C533.773 8.71086 536.901 7.73529 540.417 6.81666M515.992 37.4833L526.673 38.8477M515.992 37.4833L520.638 31.65M515.992 37.4833L512.566 28.9833M526.673 38.8477C529.094 37.2748 531.085 35.3966 532.738 33.15M520.638 31.65L532.738 33.15M520.638 31.65L526.08 24.8167M520.638 31.65L517.726 18.65M526.08 24.8167L536.57 25.811M526.08 24.8167L530.992 18.65M526.08 24.8167L524.83 12.7339M530.992 18.65H538.591M530.992 18.65V9.7989M480.417 0.649993H540.417M480.417 44.4833H540.417M540.417 50.8167H480.417" stroke="#7F715A" stroke-width="1.3"/>
<path d="M750.583 44.4829L745.039 37.4829M736.25 12.7335C739.093 14.4085 741.421 16.3418 743.314 18.6496C745.625 21.466 747.287 24.8401 748.446 28.9829C749.641 33.255 750.3 38.3446 750.583 44.4829C743.702 43.2671 738.457 41.4876 734.416 38.8473C732.009 37.2744 730.03 35.3961 728.386 33.1496M720.75 6.81625L730.122 18.6496M736.25 12.7335C734.426 11.6591 732.391 10.6909 730.122 9.79849C727.357 8.71045 724.245 7.73488 720.75 6.81625C721.239 11.2321 721.817 15.1581 722.565 18.6496C723.128 21.2743 723.786 23.6534 724.575 25.8106C725.6 28.6149 726.846 31.044 728.386 33.1496M745.039 37.4829L734.416 38.8473M745.039 37.4829L740.419 31.6496M745.039 37.4829L748.446 28.9829M740.419 31.6496L728.386 33.1496M740.419 31.6496L735.006 24.8162M740.419 31.6496L743.314 18.6496M735.006 24.8162L724.575 25.8106M735.006 24.8162L730.122 18.6496M735.006 24.8162L736.25 12.7335M730.122 18.6496H722.565M730.122 18.6496V9.79849" stroke="#7F715A" stroke-width="1.3"/>
<path d="M750.417 44.4833L755.992 37.4833M764.83 12.7339C761.971 14.4089 759.63 16.3422 757.726 18.65C755.402 21.4664 753.731 24.8405 752.566 28.9833C751.364 33.2554 750.701 38.345 750.417 44.4833C757.336 43.2675 762.61 41.488 766.673 38.8477M780.417 6.81666L770.992 18.65M720.417 6.81666H780.417C779.925 11.2325 779.343 15.1585 778.591 18.65C778.025 21.2747 777.363 23.6538 776.57 25.811C775.539 28.6153 774.287 31.0444 772.738 33.15M764.83 12.7339C766.664 11.6595 768.711 10.6914 770.992 9.7989C773.773 8.71086 776.901 7.73529 780.417 6.81666M755.992 37.4833L766.673 38.8477M755.992 37.4833L760.638 31.65M755.992 37.4833L752.566 28.9833M766.673 38.8477C769.094 37.2748 771.085 35.3966 772.738 33.15M760.638 31.65L772.738 33.15M760.638 31.65L766.08 24.8167M760.638 31.65L757.726 18.65M766.08 24.8167L776.57 25.811M766.08 24.8167L770.992 18.65M766.08 24.8167L764.83 12.7339M770.992 18.65H778.591M770.992 18.65V9.7989M720.417 0.649993H780.417M720.417 44.4833H780.417M780.417 50.8167H720.417" stroke="#7F715A" stroke-width="1.3"/>
<path d="M150.583 44.4829L145.039 37.4829M136.25 12.7335C139.093 14.4085 141.421 16.3418 143.314 18.6496C145.625 21.466 147.287 24.8401 148.446 28.9829C149.641 33.255 150.3 38.3446 150.583 44.4829C143.702 43.2671 138.457 41.4876 134.416 38.8473C132.009 37.2744 130.03 35.3961 128.386 33.1496M120.75 6.81625L130.122 18.6496M136.25 12.7335C134.426 11.6591 132.391 10.6909 130.122 9.79849C127.357 8.71045 124.245 7.73488 120.75 6.81625C121.239 11.2321 121.817 15.1581 122.565 18.6496C123.128 21.2743 123.786 23.6534 124.575 25.8106C125.6 28.6149 126.846 31.044 128.386 33.1496M145.039 37.4829L134.416 38.8473M145.039 37.4829L140.419 31.6496M145.039 37.4829L148.446 28.9829M140.419 31.6496L128.386 33.1496M140.419 31.6496L135.006 24.8162M140.419 31.6496L143.314 18.6496M135.006 24.8162L124.575 25.8106M135.006 24.8162L130.122 18.6496M135.006 24.8162L136.25 12.7335M130.122 18.6496H122.565M130.122 18.6496V9.79849" stroke="#7F715A" stroke-width="1.3"/>
<path d="M150.416 44.4833L155.991 37.4833M164.829 12.7339C161.97 14.4089 159.629 16.3422 157.725 18.65C155.402 21.4664 153.73 24.8405 152.565 28.9833C151.363 33.2554 150.7 38.345 150.416 44.4833C157.335 43.2675 162.61 41.488 166.673 38.8477M180.416 6.81666L170.991 18.65M120.416 6.81666H180.416C179.924 11.2325 179.343 15.1585 178.59 18.65C178.025 21.2747 177.363 23.6538 176.569 25.811C175.538 28.6153 174.286 31.0444 172.737 33.15M164.829 12.7339C166.663 11.6595 168.71 10.6914 170.991 9.7989C173.772 8.71086 176.901 7.73529 180.416 6.81666M155.991 37.4833L166.673 38.8477M155.991 37.4833L160.637 31.65M155.991 37.4833L152.565 28.9833M166.673 38.8477C169.093 37.2748 171.084 35.3966 172.737 33.15M160.637 31.65L172.737 33.15M160.637 31.65L166.08 24.8167M160.637 31.65L157.725 18.65M166.08 24.8167L176.569 25.811M166.08 24.8167L170.991 18.65M166.08 24.8167L164.829 12.7339M170.991 18.65H178.59M170.991 18.65V9.7989M120.416 0.649993H180.416M120.416 44.4833H180.416M180.416 50.8167H120.416" stroke="#7F715A" stroke-width="1.3"/>
<path d="M390.583 44.4829L385.039 37.4829M376.25 12.7335C379.093 14.4085 381.421 16.3418 383.314 18.6496C385.625 21.466 387.287 24.8401 388.446 28.9829C389.641 33.255 390.3 38.3446 390.583 44.4829C383.702 43.2671 378.457 41.4876 374.416 38.8473C372.009 37.2744 370.03 35.3961 368.386 33.1496M360.75 6.81625L370.122 18.6496M376.25 12.7335C374.426 11.6591 372.391 10.6909 370.122 9.79849C367.357 8.71045 364.245 7.73488 360.75 6.81625C361.239 11.2321 361.817 15.1581 362.565 18.6496C363.128 21.2743 363.786 23.6534 364.575 25.8106C365.6 28.6149 366.846 31.044 368.386 33.1496M385.039 37.4829L374.416 38.8473M385.039 37.4829L380.419 31.6496M385.039 37.4829L388.446 28.9829M380.419 31.6496L368.386 33.1496M380.419 31.6496L375.006 24.8162M380.419 31.6496L383.314 18.6496M375.006 24.8162L364.575 25.8106M375.006 24.8162L370.122 18.6496M375.006 24.8162L376.25 12.7335M370.122 18.6496H362.565M370.122 18.6496V9.79849" stroke="#7F715A" stroke-width="1.3"/>
<path d="M390.417 44.4833L395.992 37.4833M404.83 12.7339C401.971 14.4089 399.63 16.3422 397.726 18.65C395.402 21.4664 393.731 24.8405 392.566 28.9833C391.364 33.2554 390.701 38.345 390.417 44.4833C397.336 43.2675 402.61 41.488 406.673 38.8477M420.417 6.81666L410.992 18.65M360.417 6.81666H420.417C419.925 11.2325 419.343 15.1585 418.591 18.65C418.025 21.2747 417.363 23.6538 416.57 25.811C415.539 28.6153 414.287 31.0444 412.738 33.15M404.83 12.7339C406.664 11.6595 408.711 10.6914 410.992 9.7989C413.773 8.71086 416.901 7.73529 420.417 6.81666M395.992 37.4833L406.673 38.8477M395.992 37.4833L400.638 31.65M395.992 37.4833L392.566 28.9833M406.673 38.8477C409.094 37.2748 411.085 35.3966 412.738 33.15M400.638 31.65L412.738 33.15M400.638 31.65L406.08 24.8167M400.638 31.65L397.726 18.65M406.08 24.8167L416.57 25.811M406.08 24.8167L410.992 18.65M406.08 24.8167L404.83 12.7339M410.992 18.65H418.591M410.992 18.65V9.7989M360.417 0.649993H420.417M360.417 44.4833H420.417M420.417 50.8167H360.417" stroke="#7F715A" stroke-width="1.3"/>
<path d="M630.583 44.4829L625.039 37.4829M616.25 12.7335C619.093 14.4085 621.421 16.3418 623.314 18.6496C625.625 21.466 627.287 24.8401 628.446 28.9829C629.641 33.255 630.3 38.3446 630.583 44.4829C623.702 43.2671 618.457 41.4876 614.416 38.8473C612.009 37.2744 610.03 35.3961 608.386 33.1496M600.75 6.81625L610.122 18.6496M616.25 12.7335C614.426 11.6591 612.391 10.6909 610.122 9.79849C607.357 8.71045 604.245 7.73488 600.75 6.81625C601.239 11.2321 601.817 15.1581 602.565 18.6496C603.128 21.2743 603.786 23.6534 604.575 25.8106C605.6 28.6149 606.846 31.044 608.386 33.1496M625.039 37.4829L614.416 38.8473M625.039 37.4829L620.419 31.6496M625.039 37.4829L628.446 28.9829M620.419 31.6496L608.386 33.1496M620.419 31.6496L615.006 24.8162M620.419 31.6496L623.314 18.6496M615.006 24.8162L604.575 25.8106M615.006 24.8162L610.122 18.6496M615.006 24.8162L616.25 12.7335M610.122 18.6496H602.565M610.122 18.6496V9.79849" stroke="#7F715A" stroke-width="1.3"/>
<path d="M630.416 44.4833L635.991 37.4833M644.829 12.7339C641.97 14.4089 639.629 16.3422 637.725 18.65C635.402 21.4664 633.73 24.8405 632.565 28.9833C631.363 33.2554 630.7 38.345 630.416 44.4833C637.335 43.2675 642.61 41.488 646.673 38.8477M660.416 6.81666L650.991 18.65M600.416 6.81666H660.416C659.924 11.2325 659.343 15.1585 658.59 18.65C658.025 21.2747 657.363 23.6538 656.569 25.811C655.538 28.6153 654.286 31.0444 652.737 33.15M644.829 12.7339C646.663 11.6595 648.71 10.6914 650.991 9.7989C653.772 8.71086 656.901 7.73529 660.416 6.81666M635.991 37.4833L646.673 38.8477M635.991 37.4833L640.637 31.65M635.991 37.4833L632.565 28.9833M646.673 38.8477C649.093 37.2748 651.084 35.3966 652.737 33.15M640.637 31.65L652.737 33.15M640.637 31.65L646.08 24.8167M640.637 31.65L637.725 18.65M646.08 24.8167L656.569 25.811M646.08 24.8167L650.991 18.65M646.08 24.8167L644.829 12.7339M650.991 18.65H658.59M650.991 18.65V9.7989M600.416 0.649993H660.416M600.416 44.4833H660.416M660.416 50.8167H600.416" stroke="#7F715A" stroke-width="1.3"/>
<path d="M870.583 44.4829L865.039 37.4829M856.25 12.7335C859.093 14.4085 861.421 16.3418 863.314 18.6496C865.625 21.466 867.287 24.8401 868.446 28.9829C869.641 33.255 870.3 38.3446 870.583 44.4829C863.702 43.2671 858.457 41.4876 854.416 38.8473C852.009 37.2744 850.029 35.3961 848.386 33.1496M840.75 6.81625L850.122 18.6496M856.25 12.7335C854.426 11.6591 852.39 10.6909 850.122 9.79849C847.357 8.71045 844.245 7.73488 840.75 6.81625C841.239 11.2321 841.817 15.1581 842.565 18.6496C843.128 21.2743 843.786 23.6534 844.575 25.8106C845.6 28.6149 846.845 31.044 848.386 33.1496M865.039 37.4829L854.416 38.8473M865.039 37.4829L860.418 31.6496M865.039 37.4829L868.446 28.9829M860.418 31.6496L848.386 33.1496M860.418 31.6496L855.006 24.8162M860.418 31.6496L863.314 18.6496M855.006 24.8162L844.575 25.8106M855.006 24.8162L850.122 18.6496M855.006 24.8162L856.25 12.7335M850.122 18.6496H842.565M850.122 18.6496V9.79849" stroke="#7F715A" stroke-width="1.3"/>
<path d="M870.416 44.4833L875.991 37.4833M884.829 12.7339C881.97 14.4089 879.629 16.3422 877.725 18.65C875.402 21.4664 873.73 24.8405 872.565 28.9833C871.363 33.2554 870.7 38.345 870.416 44.4833C877.335 43.2675 882.61 41.488 886.673 38.8477M900.416 6.81666L890.991 18.65M840.416 6.81666H900.416C899.924 11.2325 899.343 15.1585 898.59 18.65C898.025 21.2747 897.363 23.6538 896.569 25.811C895.538 28.6153 894.286 31.0444 892.737 33.15M884.829 12.7339C886.663 11.6595 888.71 10.6914 890.991 9.7989C893.772 8.71086 896.901 7.73529 900.416 6.81666M875.991 37.4833L886.673 38.8477M875.991 37.4833L880.637 31.65M875.991 37.4833L872.565 28.9833M886.673 38.8477C889.093 37.2748 891.084 35.3966 892.737 33.15M880.637 31.65L892.737 33.15M880.637 31.65L886.08 24.8167M880.637 31.65L877.725 18.65M886.08 24.8167L896.569 25.811M886.08 24.8167L890.991 18.65M886.08 24.8167L884.829 12.7339M890.991 18.65H898.59M890.991 18.65V9.7989M840.416 0.649993H900.416M840.416 44.4833H900.416M900.416 50.8167H840.416" stroke="#7F715A" stroke-width="1.3"/>
<path d="M90.5831 44.4829L85.0388 37.4829M76.2498 12.7335C79.0929 14.4085 81.4212 16.3418 83.3144 18.6496C85.6249 21.466 87.2872 24.8401 88.446 28.9829C89.6409 33.255 90.3004 38.3446 90.5831 44.4829C83.7021 43.2671 78.4571 41.4876 74.4164 38.8473C72.0094 37.2744 70.0297 35.3961 68.386 33.1496M60.7498 6.81625L70.1222 18.6496M76.2498 12.7335C74.426 11.6591 72.3905 10.6909 70.1222 9.79849C67.3567 8.71045 64.2453 7.73488 60.7498 6.81625C61.2388 11.2321 61.8171 15.1581 62.5653 18.6496C63.1278 21.2743 63.7863 23.6534 64.5749 25.8106C65.6002 28.6149 66.8455 31.044 68.386 33.1496M85.0388 37.4829L74.4164 38.8473M85.0388 37.4829L80.4186 31.6496M85.0388 37.4829L88.446 28.9829M80.4186 31.6496L68.386 33.1496M80.4186 31.6496L75.0064 24.8162M80.4186 31.6496L83.3144 18.6496M75.0064 24.8162L64.5749 25.8106M75.0064 24.8162L70.1222 18.6496M75.0064 24.8162L76.2498 12.7335M70.1222 18.6496H62.5653M70.1222 18.6496V9.79849" stroke="#7F715A" stroke-width="1.3"/>
<path d="M90.4165 44.4833L95.9917 37.4833M104.83 12.7339C101.971 14.4089 99.6295 16.3422 97.7258 18.65C95.4024 21.4664 93.7308 24.8405 92.5656 28.9833C91.364 33.2554 90.7008 38.345 90.4165 44.4833C97.336 43.2675 102.61 41.488 106.673 38.8477M120.417 6.81666L110.992 18.65M60.4165 6.81666H120.417C119.925 11.2325 119.343 15.1585 118.591 18.65C118.025 21.2747 117.363 23.6538 116.57 25.811C115.539 28.6153 114.287 31.0444 112.738 33.15M104.83 12.7339C106.664 11.6595 108.711 10.6914 110.992 9.7989C113.773 8.71086 116.901 7.73529 120.417 6.81666M95.9917 37.4833L106.673 38.8477M95.9917 37.4833L100.638 31.65M95.9917 37.4833L92.5656 28.9833M106.673 38.8477C109.094 37.2748 111.085 35.3966 112.738 33.15M100.638 31.65L112.738 33.15M100.638 31.65L106.08 24.8167M100.638 31.65L97.7258 18.65M106.08 24.8167L116.57 25.811M106.08 24.8167L110.992 18.65M106.08 24.8167L104.83 12.7339M110.992 18.65H118.591M110.992 18.65V9.7989M60.4165 0.649993H120.417M60.4165 44.4833H120.417M120.417 50.8167H60.4165" stroke="#7F715A" stroke-width="1.3"/>
<path d="M330.583 44.4829L325.039 37.4829M316.25 12.7335C319.093 14.4085 321.421 16.3418 323.314 18.6496C325.625 21.466 327.287 24.8401 328.446 28.9829C329.641 33.255 330.3 38.3446 330.583 44.4829C323.702 43.2671 318.457 41.4876 314.416 38.8473C312.009 37.2744 310.03 35.3961 308.386 33.1496M300.75 6.81625L310.122 18.6496M316.25 12.7335C314.426 11.6591 312.391 10.6909 310.122 9.79849C307.357 8.71045 304.245 7.73488 300.75 6.81625C301.239 11.2321 301.817 15.1581 302.565 18.6496C303.128 21.2743 303.786 23.6534 304.575 25.8106C305.6 28.6149 306.846 31.044 308.386 33.1496M325.039 37.4829L314.416 38.8473M325.039 37.4829L320.419 31.6496M325.039 37.4829L328.446 28.9829M320.419 31.6496L308.386 33.1496M320.419 31.6496L315.006 24.8162M320.419 31.6496L323.314 18.6496M315.006 24.8162L304.575 25.8106M315.006 24.8162L310.122 18.6496M315.006 24.8162L316.25 12.7335M310.122 18.6496H302.565M310.122 18.6496V9.79849" stroke="#7F715A" stroke-width="1.3"/>
<path d="M330.416 44.4833L335.991 37.4833M344.829 12.7339C341.97 14.4089 339.629 16.3422 337.725 18.65C335.402 21.4664 333.73 24.8405 332.565 28.9833C331.363 33.2554 330.7 38.345 330.416 44.4833C337.335 43.2675 342.61 41.488 346.673 38.8477M360.416 6.81666L350.991 18.65M300.416 6.81666H360.416C359.924 11.2325 359.343 15.1585 358.59 18.65C358.025 21.2747 357.363 23.6538 356.569 25.811C355.538 28.6153 354.286 31.0444 352.737 33.15M344.829 12.7339C346.663 11.6595 348.71 10.6914 350.991 9.7989C353.772 8.71086 356.901 7.73529 360.416 6.81666M335.991 37.4833L346.673 38.8477M335.991 37.4833L340.637 31.65M335.991 37.4833L332.565 28.9833M346.673 38.8477C349.093 37.2748 351.084 35.3966 352.737 33.15M340.637 31.65L352.737 33.15M340.637 31.65L346.08 24.8167M340.637 31.65L337.725 18.65M346.08 24.8167L356.569 25.811M346.08 24.8167L350.991 18.65M346.08 24.8167L344.829 12.7339M350.991 18.65H358.59M350.991 18.65V9.7989M300.416 0.649993H360.416M300.416 44.4833H360.416M360.416 50.8167H300.416" stroke="#7F715A" stroke-width="1.3"/>
<path d="M570.583 44.4829L565.039 37.4829M556.25 12.7335C559.093 14.4085 561.421 16.3418 563.314 18.6496C565.625 21.466 567.287 24.8401 568.446 28.9829C569.641 33.255 570.3 38.3446 570.583 44.4829C563.702 43.2671 558.457 41.4876 554.416 38.8473C552.009 37.2744 550.03 35.3961 548.386 33.1496M540.75 6.81625L550.122 18.6496M556.25 12.7335C554.426 11.6591 552.391 10.6909 550.122 9.79849C547.357 8.71045 544.245 7.73488 540.75 6.81625C541.239 11.2321 541.817 15.1581 542.565 18.6496C543.128 21.2743 543.786 23.6534 544.575 25.8106C545.6 28.6149 546.846 31.044 548.386 33.1496M565.039 37.4829L554.416 38.8473M565.039 37.4829L560.419 31.6496M565.039 37.4829L568.446 28.9829M560.419 31.6496L548.386 33.1496M560.419 31.6496L555.006 24.8162M560.419 31.6496L563.314 18.6496M555.006 24.8162L544.575 25.8106M555.006 24.8162L550.122 18.6496M555.006 24.8162L556.25 12.7335M550.122 18.6496H542.565M550.122 18.6496V9.79849" stroke="#7F715A" stroke-width="1.3"/>
<path d="M570.416 44.4833L575.991 37.4833M584.829 12.7339C581.97 14.4089 579.629 16.3422 577.725 18.65C575.402 21.4664 573.73 24.8405 572.565 28.9833C571.363 33.2554 570.7 38.345 570.416 44.4833C577.335 43.2675 582.61 41.488 586.673 38.8477M600.416 6.81666L590.991 18.65M540.416 6.81666H600.416C599.924 11.2325 599.343 15.1585 598.59 18.65C598.025 21.2747 597.363 23.6538 596.569 25.811C595.538 28.6153 594.286 31.0444 592.737 33.15M584.829 12.7339C586.663 11.6595 588.71 10.6914 590.991 9.7989C593.772 8.71086 596.901 7.73529 600.416 6.81666M575.991 37.4833L586.673 38.8477M575.991 37.4833L580.637 31.65M575.991 37.4833L572.565 28.9833M586.673 38.8477C589.093 37.2748 591.084 35.3966 592.737 33.15M580.637 31.65L592.737 33.15M580.637 31.65L586.08 24.8167M580.637 31.65L577.725 18.65M586.08 24.8167L596.569 25.811M586.08 24.8167L590.991 18.65M586.08 24.8167L584.829 12.7339M590.991 18.65H598.59M590.991 18.65V9.7989M540.416 0.649993H600.416M540.416 44.4833H600.416M600.416 50.8167H540.416" stroke="#7F715A" stroke-width="1.3"/>
<path d="M810.583 44.4829L805.039 37.4829M796.25 12.7335C799.093 14.4085 801.421 16.3418 803.314 18.6496C805.625 21.466 807.287 24.8401 808.446 28.9829C809.641 33.255 810.3 38.3446 810.583 44.4829C803.702 43.2671 798.457 41.4876 794.416 38.8473C792.009 37.2744 790.03 35.3961 788.386 33.1496M780.75 6.81625L790.122 18.6496M796.25 12.7335C794.426 11.6591 792.391 10.6909 790.122 9.79849C787.357 8.71045 784.245 7.73488 780.75 6.81625C781.239 11.2321 781.817 15.1581 782.565 18.6496C783.128 21.2743 783.786 23.6534 784.575 25.8106C785.6 28.6149 786.846 31.044 788.386 33.1496M805.039 37.4829L794.416 38.8473M805.039 37.4829L800.419 31.6496M805.039 37.4829L808.446 28.9829M800.419 31.6496L788.386 33.1496M800.419 31.6496L795.006 24.8162M800.419 31.6496L803.314 18.6496M795.006 24.8162L784.575 25.8106M795.006 24.8162L790.122 18.6496M795.006 24.8162L796.25 12.7335M790.122 18.6496H782.565M790.122 18.6496V9.79849" stroke="#7F715A" stroke-width="1.3"/>
<path d="M810.416 44.4833L815.991 37.4833M824.829 12.7339C821.97 14.4089 819.629 16.3422 817.725 18.65C815.402 21.4664 813.73 24.8405 812.565 28.9833C811.363 33.2554 810.7 38.345 810.416 44.4833C817.335 43.2675 822.61 41.488 826.673 38.8477M840.416 6.81666L830.991 18.65M780.416 6.81666H840.416C839.924 11.2325 839.343 15.1585 838.59 18.65C838.025 21.2747 837.363 23.6538 836.569 25.811C835.538 28.6153 834.286 31.0444 832.737 33.15M824.829 12.7339C826.663 11.6595 828.71 10.6914 830.991 9.7989C833.772 8.71086 836.901 7.73529 840.416 6.81666M815.991 37.4833L826.673 38.8477M815.991 37.4833L820.637 31.65M815.991 37.4833L812.565 28.9833M826.673 38.8477C829.093 37.2748 831.084 35.3966 832.737 33.15M820.637 31.65L832.737 33.15M820.637 31.65L826.08 24.8167M820.637 31.65L817.725 18.65M826.08 24.8167L836.569 25.811M826.08 24.8167L830.991 18.65M826.08 24.8167L824.829 12.7339M830.991 18.65H838.59M830.991 18.65V9.7989M780.416 0.649993H840.416M780.416 44.4833H840.416M840.416 50.8167H780.416" stroke="#7F715A" stroke-width="1.3"/>
<path d="M210.583 44.4829L205.039 37.4829M196.25 12.7335C199.093 14.4085 201.421 16.3418 203.314 18.6496C205.625 21.466 207.287 24.8401 208.446 28.9829C209.641 33.255 210.3 38.3446 210.583 44.4829C203.702 43.2671 198.457 41.4876 194.416 38.8473C192.009 37.2744 190.03 35.3961 188.386 33.1496M180.75 6.81625L190.122 18.6496M196.25 12.7335C194.426 11.6591 192.391 10.6909 190.122 9.79849C187.357 8.71045 184.245 7.73488 180.75 6.81625C181.239 11.2321 181.817 15.1581 182.565 18.6496C183.128 21.2743 183.786 23.6534 184.575 25.8106C185.6 28.6149 186.846 31.044 188.386 33.1496M205.039 37.4829L194.416 38.8473M205.039 37.4829L200.419 31.6496M205.039 37.4829L208.446 28.9829M200.419 31.6496L188.386 33.1496M200.419 31.6496L195.006 24.8162M200.419 31.6496L203.314 18.6496M195.006 24.8162L184.575 25.8106M195.006 24.8162L190.122 18.6496M195.006 24.8162L196.25 12.7335M190.122 18.6496H182.565M190.122 18.6496V9.79849" stroke="#7F715A" stroke-width="1.3"/>
<path d="M210.416 44.4833L215.991 37.4833M224.829 12.7339C221.97 14.4089 219.629 16.3422 217.725 18.65C215.402 21.4664 213.73 24.8405 212.565 28.9833C211.363 33.2554 210.7 38.345 210.416 44.4833C217.335 43.2675 222.61 41.488 226.673 38.8477M240.416 6.81666L230.991 18.65M180.416 6.81666H240.416C239.924 11.2325 239.343 15.1585 238.59 18.65C238.025 21.2747 237.363 23.6538 236.569 25.811C235.538 28.6153 234.286 31.0444 232.737 33.15M224.829 12.7339C226.663 11.6595 228.71 10.6914 230.991 9.7989C233.772 8.71086 236.901 7.73529 240.416 6.81666M215.991 37.4833L226.673 38.8477M215.991 37.4833L220.637 31.65M215.991 37.4833L212.565 28.9833M226.673 38.8477C229.093 37.2748 231.084 35.3966 232.737 33.15M220.637 31.65L232.737 33.15M220.637 31.65L226.08 24.8167M220.637 31.65L217.725 18.65M226.08 24.8167L236.569 25.811M226.08 24.8167L230.991 18.65M226.08 24.8167L224.829 12.7339M230.991 18.65H238.59M230.991 18.65V9.7989M180.416 0.649993H240.416M180.416 44.4833H240.416M240.416 50.8167H180.416" stroke="#7F715A" stroke-width="1.3"/>
<path d="M450.583 44.4829L445.039 37.4829M436.25 12.7335C439.093 14.4085 441.421 16.3418 443.314 18.6496C445.625 21.466 447.287 24.8401 448.446 28.9829C449.641 33.255 450.3 38.3446 450.583 44.4829C443.702 43.2671 438.457 41.4876 434.416 38.8473C432.009 37.2744 430.03 35.3961 428.386 33.1496M420.75 6.81625L430.122 18.6496M436.25 12.7335C434.426 11.6591 432.391 10.6909 430.122 9.79849C427.357 8.71045 424.245 7.73488 420.75 6.81625C421.239 11.2321 421.817 15.1581 422.565 18.6496C423.128 21.2743 423.786 23.6534 424.575 25.8106C425.6 28.6149 426.846 31.044 428.386 33.1496M445.039 37.4829L434.416 38.8473M445.039 37.4829L440.419 31.6496M445.039 37.4829L448.446 28.9829M440.419 31.6496L428.386 33.1496M440.419 31.6496L435.006 24.8162M440.419 31.6496L443.314 18.6496M435.006 24.8162L424.575 25.8106M435.006 24.8162L430.122 18.6496M435.006 24.8162L436.25 12.7335M430.122 18.6496H422.565M430.122 18.6496V9.79849" stroke="#7F715A" stroke-width="1.3"/>
<path d="M450.417 44.4833L455.992 37.4833M464.83 12.7339C461.971 14.4089 459.63 16.3422 457.726 18.65C455.402 21.4664 453.731 24.8405 452.566 28.9833C451.364 33.2554 450.701 38.345 450.417 44.4833C457.336 43.2675 462.61 41.488 466.673 38.8477M480.417 6.81666L470.992 18.65M420.417 6.81666H480.417C479.925 11.2325 479.343 15.1585 478.591 18.65C478.025 21.2747 477.363 23.6538 476.57 25.811C475.539 28.6153 474.287 31.0444 472.738 33.15M464.83 12.7339C466.664 11.6595 468.711 10.6914 470.992 9.7989C473.773 8.71086 476.901 7.73529 480.417 6.81666M455.992 37.4833L466.673 38.8477M455.992 37.4833L460.638 31.65M455.992 37.4833L452.566 28.9833M466.673 38.8477C469.094 37.2748 471.085 35.3966 472.738 33.15M460.638 31.65L472.738 33.15M460.638 31.65L466.08 24.8167M460.638 31.65L457.726 18.65M466.08 24.8167L476.57 25.811M466.08 24.8167L470.992 18.65M466.08 24.8167L464.83 12.7339M470.992 18.65H478.591M470.992 18.65V9.7989M420.417 0.649993H480.417M420.417 44.4833H480.417M480.417 50.8167H420.417" stroke="#7F715A" stroke-width="1.3"/>
<path d="M690.583 44.4829L685.039 37.4829M676.25 12.7335C679.093 14.4085 681.421 16.3418 683.314 18.6496C685.625 21.466 687.287 24.8401 688.446 28.9829C689.641 33.255 690.3 38.3446 690.583 44.4829C683.702 43.2671 678.457 41.4876 674.416 38.8473C672.009 37.2744 670.03 35.3961 668.386 33.1496M660.75 6.81625L670.122 18.6496M676.25 12.7335C674.426 11.6591 672.391 10.6909 670.122 9.79849C667.357 8.71045 664.245 7.73488 660.75 6.81625C661.239 11.2321 661.817 15.1581 662.565 18.6496C663.128 21.2743 663.786 23.6534 664.575 25.8106C665.6 28.6149 666.846 31.044 668.386 33.1496M685.039 37.4829L674.416 38.8473M685.039 37.4829L680.419 31.6496M685.039 37.4829L688.446 28.9829M680.419 31.6496L668.386 33.1496M680.419 31.6496L675.006 24.8162M680.419 31.6496L683.314 18.6496M675.006 24.8162L664.575 25.8106M675.006 24.8162L670.122 18.6496M675.006 24.8162L676.25 12.7335M670.122 18.6496H662.565M670.122 18.6496V9.79849" stroke="#7F715A" stroke-width="1.3"/>
<path d="M690.417 44.4833L695.992 37.4833M704.83 12.7339C701.971 14.4089 699.63 16.3422 697.726 18.65C695.402 21.4664 693.731 24.8405 692.566 28.9833C691.364 33.2554 690.701 38.345 690.417 44.4833C697.336 43.2675 702.61 41.488 706.673 38.8477M720.417 6.81666L710.992 18.65M660.417 6.81666H720.417C719.925 11.2325 719.343 15.1585 718.591 18.65C718.025 21.2747 717.363 23.6538 716.57 25.811C715.539 28.6153 714.287 31.0444 712.738 33.15M704.83 12.7339C706.664 11.6595 708.711 10.6914 710.992 9.7989C713.773 8.71086 716.901 7.73529 720.417 6.81666M695.992 37.4833L706.673 38.8477M695.992 37.4833L700.638 31.65M695.992 37.4833L692.566 28.9833M706.673 38.8477C709.094 37.2748 711.085 35.3966 712.738 33.15M700.638 31.65L712.738 33.15M700.638 31.65L706.08 24.8167M700.638 31.65L697.726 18.65M706.08 24.8167L716.57 25.811M706.08 24.8167L710.992 18.65M706.08 24.8167L704.83 12.7339M710.992 18.65H718.591M710.992 18.65V9.7989M660.417 0.649993H720.417M660.417 44.4833H720.417M720.417 50.8167H660.417" stroke="#7F715A" stroke-width="1.3"/>
<path d="M930.583 44.4829L925.039 37.4829M916.25 12.7335C919.093 14.4085 921.421 16.3418 923.314 18.6496C925.625 21.466 927.287 24.8401 928.446 28.9829C929.641 33.255 930.3 38.3446 930.583 44.4829C923.702 43.2671 918.457 41.4876 914.416 38.8473C912.009 37.2744 910.029 35.3961 908.386 33.1496M900.75 6.81625L910.122 18.6496M916.25 12.7335C914.426 11.6591 912.39 10.6909 910.122 9.79849C907.357 8.71045 904.245 7.73488 900.75 6.81625C901.239 11.2321 901.817 15.1581 902.565 18.6496C903.128 21.2743 903.786 23.6534 904.575 25.8106C905.6 28.6149 906.845 31.044 908.386 33.1496M925.039 37.4829L914.416 38.8473M925.039 37.4829L920.418 31.6496M925.039 37.4829L928.446 28.9829M920.418 31.6496L908.386 33.1496M920.418 31.6496L915.006 24.8162M920.418 31.6496L923.314 18.6496M915.006 24.8162L904.575 25.8106M915.006 24.8162L910.122 18.6496M915.006 24.8162L916.25 12.7335M910.122 18.6496H902.565M910.122 18.6496V9.79849" stroke="#7F715A" stroke-width="1.3"/>
<path d="M930.417 44.4833L935.992 37.4833M944.83 12.7339C941.971 14.4089 939.63 16.3422 937.726 18.65C935.402 21.4664 933.731 24.8405 932.566 28.9833C931.364 33.2554 930.701 38.345 930.417 44.4833C937.336 43.2675 942.61 41.488 946.673 38.8477M960.417 6.81666L950.992 18.65M900.417 6.81666H960.417C959.925 11.2325 959.343 15.1585 958.591 18.65C958.025 21.2747 957.363 23.6538 956.57 25.811C955.539 28.6153 954.287 31.0444 952.738 33.15M944.83 12.7339C946.664 11.6595 948.711 10.6914 950.992 9.7989C953.773 8.71086 956.901 7.73529 960.417 6.81666M935.992 37.4833L946.673 38.8477M935.992 37.4833L940.638 31.65M935.992 37.4833L932.566 28.9833M946.673 38.8477C949.094 37.2748 951.085 35.3966 952.738 33.15M940.638 31.65L952.738 33.15M940.638 31.65L946.08 24.8167M940.638 31.65L937.726 18.65M946.08 24.8167L956.57 25.811M946.08 24.8167L950.992 18.65M946.08 24.8167L944.83 12.7339M950.992 18.65H958.591M950.992 18.65V9.7989M900.417 0.649993H960.417M900.417 44.4833H960.417M960.417 50.8167H900.417" stroke="#7F715A" stroke-width="1.3"/>
</svg>
